<svg xmlns="http://www.w3.org/2000/svg" width="347" height="347" viewBox="0 0 347 347">
  <g fill="none" fill-rule="evenodd">
    <rect width="14.398" height="14.398" fill="#F1FCFD"/>
    <rect width="14.398" height="14.398" x="15.838" fill="#E8FBFC"/>
    <rect width="14.398" height="14.398" x="31.676" fill="#F7FEFE"/>
    <rect width="14.398" height="14.398" x="47.515" fill="#F7FEFE"/>
    <rect width="14.398" height="14.398" x="63.353" fill="#E1F4FC"/>
    <rect width="14.398" height="14.398" x="79.191" fill="#E5F1FE"/>
    <rect width="14.398" height="14.398" x="95.029" fill="#F1FCFD"/>
    <rect width="14.398" height="14.398" x="110.867" fill="#F1FCFD"/>
    <rect width="14.398" height="14.398" x="126.705" fill="#E8FBFC"/>
    <rect width="14.398" height="14.398" x="142.544" fill="#E8FBFC"/>
    <rect width="14.398" height="14.398" x="158.382" fill="#E1F4FC"/>
    <rect width="14.398" height="14.398" x="174.22" fill="#F5FDFE"/>
    <rect width="14.398" height="14.398" x="190.058" fill="#F5FDFE"/>
    <rect width="14.398" height="14.398" x="205.896" fill="#D9F0FF"/>
    <rect width="14.398" height="14.398" x="221.734" fill="#F7FEFE"/>
    <rect width="14.398" height="14.398" x="237.573" fill="#F1FCFD"/>
    <rect width="14.398" height="14.398" x="253.411" fill="#E5F1FE"/>
    <rect width="14.398" height="14.398" x="269.249" fill="#D9F0FF"/>
    <rect width="14.398" height="14.398" x="285.087" fill="#F1FCFD"/>
    <rect width="14.398" height="14.398" x="300.925" fill="#E8FBFC"/>
    <rect width="14.398" height="14.398" x="316.763" fill="#D9F0FF"/>
    <rect width="14.398" height="14.398" x="332.602" fill="#D9F0FF"/>
    <rect width="14.398" height="14.398" y="15.838" fill="#E5F1FE"/>
    <rect width="14.398" height="14.398" x="15.838" y="15.838" fill="#E5F1FE"/>
    <rect width="14.398" height="14.398" x="31.676" y="15.838" fill="#E5F1FE"/>
    <rect width="14.398" height="14.398" x="47.515" y="15.838" fill="#F7FEFE"/>
    <rect width="14.398" height="14.398" x="63.353" y="15.838" fill="#E5F1FE"/>
    <rect width="14.398" height="14.398" x="79.191" y="15.838" fill="#E1F4FC"/>
    <rect width="14.398" height="14.398" x="95.029" y="15.838" fill="#E1F4FC"/>
    <rect width="14.398" height="14.398" x="110.867" y="15.838" fill="#E1F4FC"/>
    <rect width="14.398" height="14.398" x="126.705" y="15.838" fill="#E1F4FC"/>
    <rect width="14.398" height="14.398" x="142.544" y="15.838" fill="#D9F0FF"/>
    <rect width="14.398" height="14.398" x="158.382" y="15.838" fill="#E5F1FE"/>
    <rect width="14.398" height="14.398" x="174.22" y="15.838" fill="#D9F0FF"/>
    <rect width="14.398" height="14.398" x="190.058" y="15.838" fill="#E5F1FE"/>
    <rect width="14.398" height="14.398" x="205.896" y="15.838" fill="#E5F1FE"/>
    <rect width="14.398" height="14.398" x="221.734" y="15.838" fill="#D9F0FF"/>
    <rect width="14.398" height="14.398" x="237.573" y="15.838" fill="#D9F0FF"/>
    <rect width="14.398" height="14.398" x="253.411" y="15.838" fill="#F5FDFE"/>
    <rect width="14.398" height="14.398" x="269.249" y="15.838" fill="#F5FDFE"/>
    <rect width="14.398" height="14.398" x="285.087" y="15.838" fill="#D9F0FF"/>
    <rect width="14.398" height="14.398" x="300.925" y="15.838" fill="#F1FCFD"/>
    <rect width="14.398" height="14.398" x="316.763" y="15.838" fill="#F5FDFE"/>
    <rect width="14.398" height="14.398" x="332.602" y="15.838" fill="#F5FDFE"/>
    <rect width="14.398" height="14.398" y="31.676" fill="#E1F4FC"/>
    <rect width="14.398" height="14.398" x="15.838" y="31.676" fill="#F1FCFD"/>
    <rect width="14.398" height="14.398" x="31.676" y="31.676" fill="#E5F1FE"/>
    <rect width="14.398" height="14.398" x="47.515" y="31.676" fill="#E5F1FE"/>
    <rect width="14.398" height="14.398" x="63.353" y="31.676" fill="#E5F1FE"/>
    <rect width="14.398" height="14.398" x="79.191" y="31.676" fill="#E5F1FE"/>
    <rect width="14.398" height="14.398" x="95.029" y="31.676" fill="#E1F4FC"/>
    <rect width="14.398" height="14.398" x="110.867" y="31.676" fill="#D9F0FF"/>
    <rect width="14.398" height="14.398" x="126.705" y="31.676" fill="#E1F4FC"/>
    <rect width="14.398" height="14.398" x="142.544" y="31.676" fill="#E5F1FE"/>
    <rect width="14.398" height="14.398" x="158.382" y="31.676" fill="#E1F4FC"/>
    <rect width="14.398" height="14.398" x="174.22" y="31.676" fill="#E5F1FE"/>
    <rect width="14.398" height="14.398" x="190.058" y="31.676" fill="#E5F1FE"/>
    <rect width="14.398" height="14.398" x="205.896" y="31.676" fill="#E1F4FC"/>
    <rect width="14.398" height="14.398" x="221.734" y="31.676" fill="#E5F1FE"/>
    <rect width="14.398" height="14.398" x="237.573" y="31.676" fill="#F7FEFE"/>
    <rect width="14.398" height="14.398" x="253.411" y="31.676" fill="#F1FCFD"/>
    <rect width="14.398" height="14.398" x="269.249" y="31.676" fill="#E1F4FC"/>
    <rect width="14.398" height="14.398" x="285.087" y="31.676" fill="#E8FBFC"/>
    <rect width="14.398" height="14.398" x="300.925" y="31.676" fill="#D9F0FF"/>
    <rect width="14.398" height="14.398" x="316.763" y="31.676" fill="#E5F1FE"/>
    <rect width="14.398" height="14.398" x="332.602" y="31.676" fill="#E5F1FE"/>
    <rect width="14.398" height="14.398" y="47.515" fill="#E1F4FC"/>
    <rect width="14.398" height="14.398" x="15.838" y="47.515" fill="#F7FEFE"/>
    <rect width="14.398" height="14.398" x="31.676" y="47.515" fill="#E8FBFC"/>
    <rect width="14.398" height="14.398" x="47.515" y="47.515" fill="#F1FCFD"/>
    <rect width="14.398" height="14.398" x="63.353" y="47.515" fill="#E1F4FC"/>
    <rect width="14.398" height="14.398" x="79.191" y="47.515" fill="#F1FCFD"/>
    <rect width="14.398" height="14.398" x="95.029" y="47.515" fill="#E1F4FC"/>
    <rect width="14.398" height="14.398" x="110.867" y="47.515" fill="#E5F1FE"/>
    <rect width="14.398" height="14.398" x="126.705" y="47.515" fill="#E5F1FE"/>
    <rect width="14.398" height="14.398" x="142.544" y="47.515" fill="#F1FCFD"/>
    <rect width="14.398" height="14.398" x="158.382" y="47.515" fill="#E1F4FC"/>
    <rect width="14.398" height="14.398" x="174.22" y="47.515" fill="#E5F1FE"/>
    <rect width="14.398" height="14.398" x="190.058" y="47.515" fill="#E8FBFC"/>
    <rect width="14.398" height="14.398" x="205.896" y="47.515" fill="#F1FCFD"/>
    <rect width="14.398" height="14.398" x="221.734" y="47.515" fill="#E1F4FC"/>
    <rect width="14.398" height="14.398" x="237.573" y="47.515" fill="#D9F0FF"/>
    <rect width="14.398" height="14.398" x="253.411" y="47.515" fill="#E5F1FE"/>
    <rect width="14.398" height="14.398" x="269.249" y="47.515" fill="#E1F4FC"/>
    <rect width="14.398" height="14.398" x="285.087" y="47.515" fill="#F1FCFD"/>
    <rect width="14.398" height="14.398" x="300.925" y="47.515" fill="#F1FCFD"/>
    <rect width="14.398" height="14.398" x="316.763" y="47.515" fill="#E5F1FE"/>
    <rect width="14.398" height="14.398" x="332.602" y="47.515" fill="#E1F4FC"/>
    <rect width="14.398" height="14.398" y="63.353" fill="#E8FBFC"/>
    <rect width="14.398" height="14.398" x="15.838" y="63.353" fill="#E8FBFC"/>
    <rect width="14.398" height="14.398" x="31.676" y="63.353" fill="#F7FEFE"/>
    <rect width="14.398" height="14.398" x="47.515" y="63.353" fill="#E1F4FC"/>
    <rect width="14.398" height="14.398" x="63.353" y="63.353" fill="#F1FCFD"/>
    <rect width="14.398" height="14.398" x="79.191" y="63.353" fill="#F7FEFE"/>
    <rect width="14.398" height="14.398" x="95.029" y="63.353" fill="#E1F4FC"/>
    <rect width="14.398" height="14.398" x="110.867" y="63.353" fill="#D9F0FF"/>
    <rect width="14.398" height="14.398" x="126.705" y="63.353" fill="#E8FBFC"/>
    <rect width="14.398" height="14.398" x="142.544" y="63.353" fill="#F1FCFD"/>
    <rect width="14.398" height="14.398" x="158.382" y="63.353" fill="#E8FBFC"/>
    <rect width="14.398" height="14.398" x="174.22" y="63.353" fill="#E8FBFC"/>
    <rect width="14.398" height="14.398" x="190.058" y="63.353" fill="#E8FBFC"/>
    <rect width="14.398" height="14.398" x="205.896" y="63.353" fill="#F1FCFD"/>
    <rect width="14.398" height="14.398" x="221.734" y="63.353" fill="#E8FBFC"/>
    <rect width="14.398" height="14.398" x="237.573" y="63.353" fill="#E1F4FC"/>
    <rect width="14.398" height="14.398" x="253.411" y="63.353" fill="#F1FCFD"/>
    <rect width="14.398" height="14.398" x="269.249" y="63.353" fill="#E8FBFC"/>
    <rect width="14.398" height="14.398" x="285.087" y="63.353" fill="#F1FCFD"/>
    <rect width="14.398" height="14.398" x="300.925" y="63.353" fill="#F1FCFD"/>
    <rect width="14.398" height="14.398" x="316.763" y="63.353" fill="#F1FCFD"/>
    <rect width="14.398" height="14.398" x="332.602" y="63.353" fill="#F1FCFD"/>
    <rect width="14.398" height="14.398" y="79.191" fill="#F1EBFD"/>
    <rect width="14.398" height="14.398" x="15.838" y="79.191" fill="#F1EBFD"/>
    <rect width="14.398" height="14.398" x="31.676" y="79.191" fill="#F1EBFD"/>
    <rect width="14.398" height="14.398" x="47.515" y="79.191" fill="#F1EBFD"/>
    <rect width="14.398" height="14.398" x="63.353" y="79.191" fill="#F1EBFD"/>
    <rect width="14.398" height="14.398" x="79.191" y="79.191" fill="#F1EBFD"/>
    <rect width="14.398" height="14.398" x="95.029" y="79.191" fill="#FDFCFF"/>
    <rect width="14.398" height="14.398" x="110.867" y="79.191" fill="#F1EBFD"/>
    <rect width="14.398" height="14.398" x="126.705" y="79.191" fill="#F9F5FF"/>
    <rect width="14.398" height="14.398" x="142.544" y="79.191" fill="#F1EBFD"/>
    <rect width="14.398" height="14.398" x="158.382" y="79.191" fill="#F1EBFD"/>
    <rect width="14.398" height="14.398" x="174.22" y="79.191" fill="#F1EBFD"/>
    <rect width="14.398" height="14.398" x="190.058" y="79.191" fill="#F9F5FF"/>
    <rect width="14.398" height="14.398" x="205.896" y="79.191" fill="#F1EBFD"/>
    <rect width="14.398" height="14.398" x="221.734" y="79.191" fill="#FDFCFF"/>
    <rect width="14.398" height="14.398" x="237.573" y="79.191" fill="#FDFCFF"/>
    <rect width="14.398" height="14.398" x="253.411" y="79.191" fill="#FDFCFF"/>
    <rect width="14.398" height="14.398" x="269.249" y="79.191" fill="#FDFCFF"/>
    <rect width="14.398" height="14.398" x="285.087" y="79.191" fill="#F1EBFD"/>
    <rect width="14.398" height="14.398" x="300.925" y="79.191" fill="#F1EBFD"/>
    <rect width="14.398" height="14.398" x="316.763" y="79.191" fill="#F1EBFD"/>
    <rect width="14.398" height="14.398" x="332.602" y="79.191" fill="#FDFCFF"/>
    <rect width="14.398" height="14.398" y="95.029" fill="#F1EBFD"/>
    <rect width="14.398" height="14.398" x="15.838" y="95.029" fill="#FDFCFF"/>
    <rect width="14.398" height="14.398" x="31.676" y="95.029" fill="#FDFCFF"/>
    <rect width="14.398" height="14.398" x="47.515" y="95.029" fill="#F1EBFD"/>
    <rect width="14.398" height="14.398" x="63.353" y="95.029" fill="#FDFCFF"/>
    <rect width="14.398" height="14.398" x="79.191" y="95.029" fill="#F1EBFD"/>
    <rect width="14.398" height="14.398" x="95.029" y="95.029" fill="#F1EBFD"/>
    <rect width="14.398" height="14.398" x="110.867" y="95.029" fill="#FDFCFF"/>
    <rect width="14.398" height="14.398" x="126.705" y="95.029" fill="#F1EBFD"/>
    <rect width="14.398" height="14.398" x="142.544" y="95.029" fill="#FDFCFF"/>
    <rect width="14.398" height="14.398" x="158.382" y="95.029" fill="#F1EBFD"/>
    <rect width="14.398" height="14.398" x="174.22" y="95.029" fill="#F9F5FF"/>
    <rect width="14.398" height="14.398" x="190.058" y="95.029" fill="#FDFCFF"/>
    <rect width="14.398" height="14.398" x="205.896" y="95.029" fill="#F9F5FF"/>
    <rect width="14.398" height="14.398" x="221.734" y="95.029" fill="#FDFCFF"/>
    <rect width="14.398" height="14.398" x="237.573" y="95.029" fill="#F1EBFD"/>
    <rect width="14.398" height="14.398" x="253.411" y="95.029" fill="#F9F5FF"/>
    <rect width="14.398" height="14.398" x="269.249" y="95.029" fill="#F1EBFD"/>
    <rect width="14.398" height="14.398" x="285.087" y="95.029" fill="#FDFCFF"/>
    <rect width="14.398" height="14.398" x="300.925" y="95.029" fill="#FDFCFF"/>
    <rect width="14.398" height="14.398" x="316.763" y="95.029" fill="#FDFCFF"/>
    <rect width="14.398" height="14.398" x="332.602" y="95.029" fill="#F1EBFD"/>
    <rect width="14.398" height="14.398" y="110.867" fill="#F1EBFD"/>
    <rect width="14.398" height="14.398" x="15.838" y="110.867" fill="#F9F5FF"/>
    <rect width="14.398" height="14.398" x="31.676" y="110.867" fill="#F9F5FF"/>
    <rect width="14.398" height="14.398" x="47.515" y="110.867" fill="#F1EBFD"/>
    <rect width="14.398" height="14.398" x="63.353" y="110.867" fill="#FDFCFF"/>
    <rect width="14.398" height="14.398" x="79.191" y="110.867" fill="#F1EBFD"/>
    <rect width="14.398" height="14.398" x="95.029" y="110.867" fill="#F1EBFD"/>
    <rect width="14.398" height="14.398" x="110.867" y="110.867" fill="#FDFCFF"/>
    <rect width="14.398" height="14.398" x="126.705" y="110.867" fill="#F1EBFD"/>
    <rect width="14.398" height="14.398" x="142.544" y="110.867" fill="#F1EBFD"/>
    <rect width="14.398" height="14.398" x="158.382" y="110.867" fill="#FDFCFF"/>
    <rect width="14.398" height="14.398" x="174.22" y="110.867" fill="#F1EBFD"/>
    <rect width="14.398" height="14.398" x="190.058" y="110.867" fill="#F1EBFD"/>
    <rect width="14.398" height="14.398" x="205.896" y="110.867" fill="#FDFCFF"/>
    <rect width="14.398" height="14.398" x="221.734" y="110.867" fill="#F1EBFD"/>
    <rect width="14.398" height="14.398" x="237.573" y="110.867" fill="#F9F5FF"/>
    <rect width="14.398" height="14.398" x="253.411" y="110.867" fill="#F1EBFD"/>
    <rect width="14.398" height="14.398" x="269.249" y="110.867" fill="#FDFCFF"/>
    <rect width="14.398" height="14.398" x="285.087" y="110.867" fill="#F1EBFD"/>
    <rect width="14.398" height="14.398" x="300.925" y="110.867" fill="#F9F5FF"/>
    <rect width="14.398" height="14.398" x="316.763" y="110.867" fill="#F1EBFD"/>
    <rect width="14.398" height="14.398" x="332.602" y="110.867" fill="#FDFCFF"/>
    <rect width="14.398" height="14.398" y="126.705" fill="#FFF8ED"/>
    <rect width="14.398" height="14.398" x="15.838" y="126.705" fill="#FFF8ED"/>
    <rect width="14.398" height="14.398" x="31.676" y="126.705" fill="#F7EDE5"/>
    <rect width="14.398" height="14.398" x="47.515" y="126.705" fill="#FFF8ED"/>
    <rect width="14.398" height="14.398" x="63.353" y="126.705" fill="#FFF8ED"/>
    <rect width="14.398" height="14.398" x="79.191" y="126.705" fill="#F7EDE5"/>
    <rect width="14.398" height="14.398" x="95.029" y="126.705" fill="#FFF8ED"/>
    <rect width="14.398" height="14.398" x="110.867" y="126.705" fill="#FFF8ED"/>
    <rect width="14.398" height="14.398" x="126.705" y="126.705" fill="#FFFAF3"/>
    <rect width="14.398" height="14.398" x="142.544" y="126.705" fill="#F7EDE5"/>
    <rect width="14.398" height="14.398" x="158.382" y="126.705" fill="#FFF8ED"/>
    <rect width="14.398" height="14.398" x="174.22" y="126.705" fill="#FFFAF3"/>
    <rect width="14.398" height="14.398" x="190.058" y="126.705" fill="#FFF8ED"/>
    <rect width="14.398" height="14.398" x="205.896" y="126.705" fill="#FFF8ED"/>
    <rect width="14.398" height="14.398" x="221.734" y="126.705" fill="#FFF8ED"/>
    <rect width="14.398" height="14.398" x="237.573" y="126.705" fill="#FFF1DB"/>
    <rect width="14.398" height="14.398" x="253.411" y="126.705" fill="#FFF1DB"/>
    <rect width="14.398" height="14.398" x="269.249" y="126.705" fill="#FFF8ED"/>
    <rect width="14.398" height="14.398" x="285.087" y="126.705" fill="#FFF8ED"/>
    <rect width="14.398" height="14.398" x="300.925" y="126.705" fill="#FFF1DB"/>
    <rect width="14.398" height="14.398" x="316.763" y="126.705" fill="#FFF8ED"/>
    <rect width="14.398" height="14.398" x="332.602" y="126.705" fill="#FFF8ED"/>
    <rect width="14.398" height="14.398" y="142.544" fill="#FFF8ED"/>
    <rect width="14.398" height="14.398" x="15.838" y="142.544" fill="#FFF1DB"/>
    <rect width="14.398" height="14.398" x="31.676" y="142.544" fill="#FFF1DB"/>
    <rect width="14.398" height="14.398" x="47.515" y="142.544" fill="#FFF8ED"/>
    <rect width="14.398" height="14.398" x="63.353" y="142.544" fill="#FFFAF3"/>
    <rect width="14.398" height="14.398" x="79.191" y="142.544" fill="#FFF8ED"/>
    <rect width="14.398" height="14.398" x="95.029" y="142.544" fill="#FFF1DB"/>
    <rect width="14.398" height="14.398" x="110.867" y="142.544" fill="#FFFAF3"/>
    <rect width="14.398" height="14.398" x="126.705" y="142.544" fill="#FFF8ED"/>
    <rect width="14.398" height="14.398" x="142.544" y="142.544" fill="#F7EDE5"/>
    <rect width="14.398" height="14.398" x="158.382" y="142.544" fill="#FFF8ED"/>
    <rect width="14.398" height="14.398" x="174.22" y="142.544" fill="#FFFAF3"/>
    <rect width="14.398" height="14.398" x="190.058" y="142.544" fill="#FFF1DB"/>
    <rect width="14.398" height="14.398" x="205.896" y="142.544" fill="#FFFAF3"/>
    <rect width="14.398" height="14.398" x="221.734" y="142.544" fill="#F7EDE5"/>
    <rect width="14.398" height="14.398" x="237.573" y="142.544" fill="#FFF8ED"/>
    <rect width="14.398" height="14.398" x="253.411" y="142.544" fill="#FFFAF3"/>
    <rect width="14.398" height="14.398" x="269.249" y="142.544" fill="#F7EDE5"/>
    <rect width="14.398" height="14.398" x="285.087" y="142.544" fill="#F7EDE5"/>
    <rect width="14.398" height="14.398" x="300.925" y="142.544" fill="#FFF8ED"/>
    <rect width="14.398" height="14.398" x="316.763" y="142.544" fill="#FFF8ED"/>
    <rect width="14.398" height="14.398" x="332.602" y="142.544" fill="#F7EDE5"/>
    <rect width="14.398" height="14.398" y="158.382" fill="#FFF8ED"/>
    <rect width="14.398" height="14.398" x="15.838" y="158.382" fill="#FFFAF3"/>
    <rect width="14.398" height="14.398" x="31.676" y="158.382" fill="#FFF8ED"/>
    <rect width="14.398" height="14.398" x="47.515" y="158.382" fill="#FFFAF3"/>
    <rect width="14.398" height="14.398" x="63.353" y="158.382" fill="#FFF1DB"/>
    <rect width="14.398" height="14.398" x="79.191" y="158.382" fill="#F7EDE5"/>
    <rect width="14.398" height="14.398" x="95.029" y="158.382" fill="#FFF8ED"/>
    <rect width="14.398" height="14.398" x="110.867" y="158.382" fill="#FFF8ED"/>
    <rect width="14.398" height="14.398" x="126.705" y="158.382" fill="#FFF1DB"/>
    <rect width="14.398" height="14.398" x="142.544" y="158.382" fill="#FFF8ED"/>
    <rect width="14.398" height="14.398" x="158.382" y="158.382" fill="#F7EDE5"/>
    <rect width="14.398" height="14.398" x="174.22" y="158.382" fill="#F7EDE5"/>
    <rect width="14.398" height="14.398" x="190.058" y="158.382" fill="#FFF8ED"/>
    <rect width="14.398" height="14.398" x="205.896" y="158.382" fill="#FFFAF3"/>
    <rect width="14.398" height="14.398" x="221.734" y="158.382" fill="#FFF8ED"/>
    <rect width="14.398" height="14.398" x="237.573" y="158.382" fill="#F7EDE5"/>
    <rect width="14.398" height="14.398" x="253.411" y="158.382" fill="#FFF8ED"/>
    <rect width="14.398" height="14.398" x="269.249" y="158.382" fill="#FFF8ED"/>
    <rect width="14.398" height="14.398" x="285.087" y="158.382" fill="#FFF1DB"/>
    <rect width="14.398" height="14.398" x="300.925" y="158.382" fill="#FFFAF3"/>
    <rect width="14.398" height="14.398" x="316.763" y="158.382" fill="#FFFAF3"/>
    <rect width="14.398" height="14.398" x="332.602" y="158.382" fill="#FFF1DB"/>
    <rect width="14.398" height="14.398" y="174.22" fill="#FFF8ED"/>
    <rect width="14.398" height="14.398" x="15.838" y="174.22" fill="#F7EDE5"/>
    <rect width="14.398" height="14.398" x="31.676" y="174.22" fill="#F7EDE5"/>
    <rect width="14.398" height="14.398" x="47.515" y="174.22" fill="#FFF1DB"/>
    <rect width="14.398" height="14.398" x="63.353" y="174.22" fill="#FFF8ED"/>
    <rect width="14.398" height="14.398" x="79.191" y="174.22" fill="#F7EDE5"/>
    <rect width="14.398" height="14.398" x="95.029" y="174.22" fill="#FFF8ED"/>
    <rect width="14.398" height="14.398" x="110.867" y="174.22" fill="#FFFAF3"/>
    <rect width="14.398" height="14.398" x="126.705" y="174.22" fill="#FFF8ED"/>
    <rect width="14.398" height="14.398" x="142.544" y="174.22" fill="#FFF1DB"/>
    <rect width="14.398" height="14.398" x="158.382" y="174.22" fill="#FFF8ED"/>
    <rect width="14.398" height="14.398" x="174.22" y="174.22" fill="#FFF1DB"/>
    <rect width="14.398" height="14.398" x="190.058" y="174.22" fill="#FFF8ED"/>
    <rect width="14.398" height="14.398" x="205.896" y="174.22" fill="#FFF1DB"/>
    <rect width="14.398" height="14.398" x="221.734" y="174.22" fill="#FFF8ED"/>
    <rect width="14.398" height="14.398" x="237.573" y="174.22" fill="#FFF1DB"/>
    <rect width="14.398" height="14.398" x="253.411" y="174.22" fill="#FFFAF3"/>
    <rect width="14.398" height="14.398" x="269.249" y="174.22" fill="#FFF8ED"/>
    <rect width="14.398" height="14.398" x="285.087" y="174.22" fill="#FFF8ED"/>
    <rect width="14.398" height="14.398" x="300.925" y="174.22" fill="#FFFAF3"/>
    <rect width="14.398" height="14.398" x="316.763" y="174.22" fill="#FFFAF3"/>
    <rect width="14.398" height="14.398" x="332.602" y="174.22" fill="#FFF1DB"/>
    <rect width="14.398" height="14.398" y="190.058" fill="#F7EDE5"/>
    <rect width="14.398" height="14.398" x="15.838" y="190.058" fill="#FFF8ED"/>
    <rect width="14.398" height="14.398" x="31.676" y="190.058" fill="#FFF8ED"/>
    <rect width="14.398" height="14.398" x="47.515" y="190.058" fill="#FFF8ED"/>
    <rect width="14.398" height="14.398" x="63.353" y="190.058" fill="#F7EDE5"/>
    <rect width="14.398" height="14.398" x="79.191" y="190.058" fill="#FFF8ED"/>
    <rect width="14.398" height="14.398" x="95.029" y="190.058" fill="#FFF8ED"/>
    <rect width="14.398" height="14.398" x="110.867" y="190.058" fill="#FFF1DB"/>
    <rect width="14.398" height="14.398" x="126.705" y="190.058" fill="#FFF8ED"/>
    <rect width="14.398" height="14.398" x="142.544" y="190.058" fill="#FFF8ED"/>
    <rect width="14.398" height="14.398" x="158.382" y="190.058" fill="#FFF1DB"/>
    <rect width="14.398" height="14.398" x="174.22" y="190.058" fill="#FFF8ED"/>
    <rect width="14.398" height="14.398" x="190.058" y="190.058" fill="#F7EDE5"/>
    <rect width="14.398" height="14.398" x="205.896" y="190.058" fill="#FFF8ED"/>
    <rect width="14.398" height="14.398" x="221.734" y="190.058" fill="#F7EDE5"/>
    <rect width="14.398" height="14.398" x="237.573" y="190.058" fill="#FFF8ED"/>
    <rect width="14.398" height="14.398" x="253.411" y="190.058" fill="#FFFAF3"/>
    <rect width="14.398" height="14.398" x="269.249" y="190.058" fill="#FFF1DB"/>
    <rect width="14.398" height="14.398" x="285.087" y="190.058" fill="#F7EDE5"/>
    <rect width="14.398" height="14.398" x="300.925" y="190.058" fill="#FFF8ED"/>
    <rect width="14.398" height="14.398" x="316.763" y="190.058" fill="#F7EDE5"/>
    <rect width="14.398" height="14.398" x="332.602" y="190.058" fill="#FFF8ED"/>
    <rect width="14.398" height="14.398" y="205.896" fill="#F7FADF"/>
    <rect width="14.398" height="14.398" x="15.838" y="205.896" fill="#F7FADF"/>
    <rect width="14.398" height="14.398" x="31.676" y="205.896" fill="#FCFDF2"/>
    <rect width="14.398" height="14.398" x="47.515" y="205.896" fill="#F1F8C1"/>
    <rect width="14.398" height="14.398" x="63.353" y="205.896" fill="#F7FADF"/>
    <rect width="14.398" height="14.398" x="79.191" y="205.896" fill="#FCFDF2"/>
    <rect width="14.398" height="14.398" x="95.029" y="205.896" fill="#F7FADF"/>
    <rect width="14.398" height="14.398" x="110.867" y="205.896" fill="#FCFDF2"/>
    <rect width="14.398" height="14.398" x="126.705" y="205.896" fill="#F1F8C1"/>
    <rect width="14.398" height="14.398" x="142.544" y="205.896" fill="#F7FADF"/>
    <rect width="14.398" height="14.398" x="158.382" y="205.896" fill="#F7FADF"/>
    <rect width="14.398" height="14.398" x="174.22" y="205.896" fill="#FCFDF2"/>
    <rect width="14.398" height="14.398" x="190.058" y="205.896" fill="#FCFDF2"/>
    <rect width="14.398" height="14.398" x="205.896" y="205.896" fill="#F7FADF"/>
    <rect width="14.398" height="14.398" x="221.734" y="205.896" fill="#F1F8C1"/>
    <rect width="14.398" height="14.398" x="237.573" y="205.896" fill="#FCFDF2"/>
    <rect width="14.398" height="14.398" x="253.411" y="205.896" fill="#F7FADF"/>
    <rect width="14.398" height="14.398" x="269.249" y="205.896" fill="#F7FADF"/>
    <rect width="14.398" height="14.398" x="285.087" y="205.896" fill="#FCFDF2"/>
    <rect width="14.398" height="14.398" x="300.925" y="205.896" fill="#F7FADF"/>
    <rect width="14.398" height="14.398" x="316.763" y="205.896" fill="#F7FADF"/>
    <rect width="14.398" height="14.398" x="332.602" y="205.896" fill="#F1F8C1"/>
    <rect width="14.398" height="14.398" y="221.734" fill="#E1FDF3"/>
    <rect width="14.398" height="14.398" x="15.838" y="221.734" fill="#E1FDF3"/>
    <rect width="14.398" height="14.398" x="31.676" y="221.734" fill="#E1FDF3"/>
    <rect width="14.398" height="14.398" x="47.515" y="221.734" fill="#F1FCFD"/>
    <rect width="14.398" height="14.398" x="63.353" y="221.734" fill="#E1FDF3"/>
    <rect width="14.398" height="14.398" x="79.191" y="221.734" fill="#E1FDF3"/>
    <rect width="14.398" height="14.398" x="95.029" y="221.734" fill="#E1FDF3"/>
    <rect width="14.398" height="14.398" x="110.867" y="221.734" fill="#E1FDF3"/>
    <rect width="14.398" height="14.398" x="126.705" y="221.734" fill="#F1FCFD"/>
    <rect width="14.398" height="14.398" x="142.544" y="221.734" fill="#E1FDF3"/>
    <rect width="14.398" height="14.398" x="158.382" y="221.734" fill="#E1FDF3"/>
    <rect width="14.398" height="14.398" x="174.22" y="221.734" fill="#E1FDF3"/>
    <rect width="14.398" height="14.398" x="190.058" y="221.734" fill="#E1FDF3"/>
    <rect width="14.398" height="14.398" x="205.896" y="221.734" fill="#E1FDF3"/>
    <rect width="14.398" height="14.398" x="221.734" y="221.734" fill="#E1FDF3"/>
    <rect width="14.398" height="14.398" x="237.573" y="221.734" fill="#F1FCFD"/>
    <rect width="14.398" height="14.398" x="253.411" y="221.734" fill="#E1FDF3"/>
    <rect width="14.398" height="14.398" x="269.249" y="221.734" fill="#E1FDF3"/>
    <rect width="14.398" height="14.398" x="285.087" y="221.734" fill="#E1FDF3"/>
    <rect width="14.398" height="14.398" x="300.925" y="221.734" fill="#E1FDF3"/>
    <rect width="14.398" height="14.398" x="316.763" y="221.734" fill="#F1FCFD"/>
    <rect width="14.398" height="14.398" x="332.602" y="221.734" fill="#E1FDF3"/>
    <rect width="14.398" height="14.398" y="237.573" fill="#E1FDF3"/>
    <rect width="14.398" height="14.398" x="15.838" y="237.573" fill="#E1FDF3"/>
    <rect width="14.398" height="14.398" x="31.676" y="237.573" fill="#F1FCFD"/>
    <rect width="14.398" height="14.398" x="47.515" y="237.573" fill="#E1FDF3"/>
    <rect width="14.398" height="14.398" x="63.353" y="237.573" fill="#F1FCFD"/>
    <rect width="14.398" height="14.398" x="79.191" y="237.573" fill="#E1FDF3"/>
    <rect width="14.398" height="14.398" x="95.029" y="237.573" fill="#F1FCFD"/>
    <rect width="14.398" height="14.398" x="110.867" y="237.573" fill="#E1FDF3"/>
    <rect width="14.398" height="14.398" x="126.705" y="237.573" fill="#F1FCFD"/>
    <rect width="14.398" height="14.398" x="142.544" y="237.573" fill="#E1FDF3"/>
    <rect width="14.398" height="14.398" x="158.382" y="237.573" fill="#F5FFFC"/>
    <rect width="14.398" height="14.398" x="174.22" y="237.573" fill="#F1FCFD"/>
    <rect width="14.398" height="14.398" x="190.058" y="237.573" fill="#F5FFFC"/>
    <rect width="14.398" height="14.398" x="205.896" y="237.573" fill="#E1FDF3"/>
    <rect width="14.398" height="14.398" x="221.734" y="237.573" fill="#F1FCFD"/>
    <rect width="14.398" height="14.398" x="237.573" y="237.573" fill="#F5FFFC"/>
    <rect width="14.398" height="14.398" x="253.411" y="237.573" fill="#F1FCFD"/>
    <rect width="14.398" height="14.398" x="269.249" y="237.573" fill="#E1FDF3"/>
    <rect width="14.398" height="14.398" x="285.087" y="237.573" fill="#F1FCFD"/>
    <rect width="14.398" height="14.398" x="300.925" y="237.573" fill="#F5FFFC"/>
    <rect width="14.398" height="14.398" x="316.763" y="237.573" fill="#E1FDF3"/>
    <rect width="14.398" height="14.398" x="332.602" y="237.573" fill="#E1FDF3"/>
    <rect width="14.398" height="14.398" y="253.411" fill="#E1FDF3"/>
    <rect width="14.398" height="14.398" x="15.838" y="253.411" fill="#F1FCFD"/>
    <rect width="14.398" height="14.398" x="31.676" y="253.411" fill="#E1FDF3"/>
    <rect width="14.398" height="14.398" x="47.515" y="253.411" fill="#E1FDF3"/>
    <rect width="14.398" height="14.398" x="63.353" y="253.411" fill="#F1FCFD"/>
    <rect width="14.398" height="14.398" x="79.191" y="253.411" fill="#F5FFFC"/>
    <rect width="14.398" height="14.398" x="95.029" y="253.411" fill="#F1FCFD"/>
    <rect width="14.398" height="14.398" x="110.867" y="253.411" fill="#E1FDF3"/>
    <rect width="14.398" height="14.398" x="126.705" y="253.411" fill="#E1FDF3"/>
    <rect width="14.398" height="14.398" x="142.544" y="253.411" fill="#F1FCFD"/>
    <rect width="14.398" height="14.398" x="158.382" y="253.411" fill="#E1FDF3"/>
    <rect width="14.398" height="14.398" x="174.22" y="253.411" fill="#E1FDF3"/>
    <rect width="14.398" height="14.398" x="190.058" y="253.411" fill="#E1FDF3"/>
    <rect width="14.398" height="14.398" x="205.896" y="253.411" fill="#F1FCFD"/>
    <rect width="14.398" height="14.398" x="221.734" y="253.411" fill="#E1FDF3"/>
    <rect width="14.398" height="14.398" x="237.573" y="253.411" fill="#E1FDF3"/>
    <rect width="14.398" height="14.398" x="253.411" y="253.411" fill="#E1FDF3"/>
    <rect width="14.398" height="14.398" x="269.249" y="253.411" fill="#F1FCFD"/>
    <rect width="14.398" height="14.398" x="285.087" y="253.411" fill="#E1FDF3"/>
    <rect width="14.398" height="14.398" x="300.925" y="253.411" fill="#E1FDF3"/>
    <rect width="14.398" height="14.398" x="316.763" y="253.411" fill="#E1FDF3"/>
    <rect width="14.398" height="14.398" x="332.602" y="253.411" fill="#F1FCFD"/>
    <rect width="14.398" height="14.398" y="269.249" fill="#DDF6DD"/>
    <rect width="14.398" height="14.398" x="15.838" y="269.249" fill="#DDF6DD"/>
    <rect width="14.398" height="14.398" x="31.676" y="269.249" fill="#EBFFEB"/>
    <rect width="14.398" height="14.398" x="47.515" y="269.249" fill="#DDF6DD"/>
    <rect width="14.398" height="14.398" x="63.353" y="269.249" fill="#DDF6DD"/>
    <rect width="14.398" height="14.398" x="79.191" y="269.249" fill="#DDF6DD"/>
    <rect width="14.398" height="14.398" x="95.029" y="269.249" fill="#DDF6DD"/>
    <rect width="14.398" height="14.398" x="110.867" y="269.249" fill="#EEFFEE"/>
    <rect width="14.398" height="14.398" x="126.705" y="269.249" fill="#EEFFEE"/>
    <rect width="14.398" height="14.398" x="142.544" y="269.249" fill="#DDF6DD"/>
    <rect width="14.398" height="14.398" x="158.382" y="269.249" fill="#DDF6DD"/>
    <rect width="14.398" height="14.398" x="174.22" y="269.249" fill="#EEFFEE"/>
    <rect width="14.398" height="14.398" x="190.058" y="269.249" fill="#EBFFEB"/>
    <rect width="14.398" height="14.398" x="205.896" y="269.249" fill="#DDF6DD"/>
    <rect width="14.398" height="14.398" x="221.734" y="269.249" fill="#DDF6DD"/>
    <rect width="14.398" height="14.398" x="237.573" y="269.249" fill="#EEFFEE"/>
    <rect width="14.398" height="14.398" x="253.411" y="269.249" fill="#DDF6DD"/>
    <rect width="14.398" height="14.398" x="269.249" y="269.249" fill="#DDF6DD"/>
    <rect width="14.398" height="14.398" x="285.087" y="269.249" fill="#EEFFEE"/>
    <rect width="14.398" height="14.398" x="300.925" y="269.249" fill="#DDF6DD"/>
    <rect width="14.398" height="14.398" x="316.763" y="269.249" fill="#EEFFEE"/>
    <rect width="14.398" height="14.398" x="332.602" y="269.249" fill="#EBFFEB"/>
    <rect width="14.398" height="14.398" y="285.087" fill="#DDF6DD"/>
    <rect width="14.398" height="14.398" x="15.838" y="285.087" fill="#EEFFEE"/>
    <rect width="14.398" height="14.398" x="31.676" y="285.087" fill="#DDF6DD"/>
    <rect width="14.398" height="14.398" x="47.515" y="285.087" fill="#EEFFEE"/>
    <rect width="14.398" height="14.398" x="63.353" y="285.087" fill="#DDF6DD"/>
    <rect width="14.398" height="14.398" x="79.191" y="285.087" fill="#EEFFEE"/>
    <rect width="14.398" height="14.398" x="95.029" y="285.087" fill="#EEFFEE"/>
    <rect width="14.398" height="14.398" x="110.867" y="285.087" fill="#EBFFEB"/>
    <rect width="14.398" height="14.398" x="126.705" y="285.087" fill="#DDF6DD"/>
    <rect width="14.398" height="14.398" x="142.544" y="285.087" fill="#EEFFEE"/>
    <rect width="14.398" height="14.398" x="158.382" y="285.087" fill="#DDF6DD"/>
    <rect width="14.398" height="14.398" x="174.22" y="285.087" fill="#DDF6DD"/>
    <rect width="14.398" height="14.398" x="190.058" y="285.087" fill="#EEFFEE"/>
    <rect width="14.398" height="14.398" x="205.896" y="285.087" fill="#DDF6DD"/>
    <rect width="14.398" height="14.398" x="221.734" y="285.087" fill="#EBFFEB"/>
    <rect width="14.398" height="14.398" x="237.573" y="285.087" fill="#DDF6DD"/>
    <rect width="14.398" height="14.398" x="253.411" y="285.087" fill="#EEFFEE"/>
    <rect width="14.398" height="14.398" x="269.249" y="285.087" fill="#EEFFEE"/>
    <rect width="14.398" height="14.398" x="285.087" y="285.087" fill="#DDF6DD"/>
    <rect width="14.398" height="14.398" x="300.925" y="285.087" fill="#EEFFEE"/>
    <rect width="14.398" height="14.398" x="316.763" y="285.087" fill="#DDF6DD"/>
    <rect width="14.398" height="14.398" x="332.602" y="285.087" fill="#EEFFEE"/>
    <rect width="14.398" height="14.398" y="300.925" fill="#FCEFEE"/>
    <rect width="14.398" height="14.398" x="15.838" y="300.925" fill="#FFF6F5"/>
    <rect width="14.398" height="14.398" x="31.676" y="300.925" fill="#FFF6F5"/>
    <rect width="14.398" height="14.398" x="47.515" y="300.925" fill="#FCEFEE"/>
    <rect width="14.398" height="14.398" x="63.353" y="300.925" fill="#FFF6F5"/>
    <rect width="14.398" height="14.398" x="79.191" y="300.925" fill="#FCEFEE"/>
    <rect width="14.398" height="14.398" x="95.029" y="300.925" fill="#FCEFEE"/>
    <rect width="14.398" height="14.398" x="110.867" y="300.925" fill="#FCEFEE"/>
    <rect width="14.398" height="14.398" x="126.705" y="300.925" fill="#FFF6F5"/>
    <rect width="14.398" height="14.398" x="142.544" y="300.925" fill="#FCEFEE"/>
    <rect width="14.398" height="14.398" x="158.382" y="300.925" fill="#FCEFEE"/>
    <rect width="14.398" height="14.398" x="174.22" y="300.925" fill="#FFF6F5"/>
    <rect width="14.398" height="14.398" x="190.058" y="300.925" fill="#FCEFEE"/>
    <rect width="14.398" height="14.398" x="205.896" y="300.925" fill="#FCEFEE"/>
    <rect width="14.398" height="14.398" x="221.734" y="300.925" fill="#FFF6F5"/>
    <rect width="14.398" height="14.398" x="237.573" y="300.925" fill="#FCEFEE"/>
    <rect width="14.398" height="14.398" x="253.411" y="300.925" fill="#FCEFEE"/>
    <rect width="14.398" height="14.398" x="269.249" y="300.925" fill="#FFF6F5"/>
    <rect width="14.398" height="14.398" x="285.087" y="300.925" fill="#FCEFEE"/>
    <rect width="14.398" height="14.398" x="300.925" y="300.925" fill="#FCEFEE"/>
    <rect width="14.398" height="14.398" x="316.763" y="300.925" fill="#FFF6F5"/>
    <rect width="14.398" height="14.398" x="332.602" y="300.925" fill="#FCEFEE"/>
    <rect width="14.398" height="14.398" y="316.763" fill="#FEF6F5"/>
    <rect width="14.398" height="14.398" x="15.838" y="316.763" fill="#FFFBFA"/>
    <rect width="14.398" height="14.398" x="31.676" y="316.763" fill="#FEF6F5"/>
    <rect width="14.398" height="14.398" x="47.515" y="316.763" fill="#FFFBFA"/>
    <rect width="14.398" height="14.398" x="63.353" y="316.763" fill="#FEF6F5"/>
    <rect width="14.398" height="14.398" x="79.191" y="316.763" fill="#FFFBFA"/>
    <rect width="14.398" height="14.398" x="95.029" y="316.763" fill="#FEF6F5"/>
    <rect width="14.398" height="14.398" x="110.867" y="316.763" fill="#FFFBFA"/>
    <rect width="14.398" height="14.398" x="126.705" y="316.763" fill="#FEF6F5"/>
    <rect width="14.398" height="14.398" x="142.544" y="316.763" fill="#FFFBFA"/>
    <rect width="14.398" height="14.398" x="158.382" y="316.763" fill="#FEF6F5"/>
    <rect width="14.398" height="14.398" x="174.22" y="316.763" fill="#FEF6F5"/>
    <rect width="14.398" height="14.398" x="190.058" y="316.763" fill="#FFFBFA"/>
    <rect width="14.398" height="14.398" x="205.896" y="316.763" fill="#FEF6F5"/>
    <rect width="14.398" height="14.398" x="221.734" y="316.763" fill="#FEF6F5"/>
    <rect width="14.398" height="14.398" x="237.573" y="316.763" fill="#FFFBFA"/>
    <rect width="14.398" height="14.398" x="253.411" y="316.763" fill="#FEF6F5"/>
    <rect width="14.398" height="14.398" x="269.249" y="316.763" fill="#FFFBFA"/>
    <rect width="14.398" height="14.398" x="285.087" y="316.763" fill="#FEF6F5"/>
    <rect width="14.398" height="14.398" x="300.925" y="316.763" fill="#FFFBFA"/>
    <rect width="14.398" height="14.398" x="316.763" y="316.763" fill="#FEF6F5"/>
    <rect width="14.398" height="14.398" x="332.602" y="316.763" fill="#FEF6F5"/>
    <rect width="14.398" height="14.398" y="332.602" fill="#FFFDFD"/>
    <rect width="14.398" height="14.398" x="15.838" y="332.602" fill="#FFFDFD"/>
    <rect width="14.398" height="14.398" x="31.676" y="332.602" fill="#FEF6F5"/>
    <rect width="14.398" height="14.398" x="47.515" y="332.602" fill="#FFFDFD"/>
    <rect width="14.398" height="14.398" x="63.353" y="332.602" fill="#FEF6F5"/>
    <rect width="14.398" height="14.398" x="79.191" y="332.602" fill="#FEF6F5"/>
    <rect width="14.398" height="14.398" x="95.029" y="332.602" fill="#FFFDFD"/>
    <rect width="14.398" height="14.398" x="110.867" y="332.602" fill="#FEF6F5"/>
    <rect width="14.398" height="14.398" x="126.705" y="332.602" fill="#FFFDFD"/>
    <rect width="14.398" height="14.398" x="142.544" y="332.602" fill="#FEF6F5"/>
    <rect width="14.398" height="14.398" x="158.382" y="332.602" fill="#FEF6F5"/>
    <rect width="14.398" height="14.398" x="174.22" y="332.602" fill="#FEF6F5"/>
    <rect width="14.398" height="14.398" x="190.058" y="332.602" fill="#FFFDFD"/>
    <rect width="14.398" height="14.398" x="205.896" y="332.602" fill="#FEF6F5"/>
    <rect width="14.398" height="14.398" x="221.734" y="332.602" fill="#FEF6F5"/>
    <rect width="14.398" height="14.398" x="237.573" y="332.602" fill="#FFFDFD"/>
    <rect width="14.398" height="14.398" x="253.411" y="332.602" fill="#FEF6F5"/>
    <rect width="14.398" height="14.398" x="269.249" y="332.602" fill="#FEF6F5"/>
    <rect width="14.398" height="14.398" x="285.087" y="332.602" fill="#FFFDFD"/>
    <rect width="14.398" height="14.398" x="300.925" y="332.602" fill="#FEF6F5"/>
    <rect width="14.398" height="14.398" x="316.763" y="332.602" fill="#FFFDFD"/>
    <rect width="14.398" height="14.398" x="332.602" y="332.602" fill="#FEF6F5"/>
  </g>
</svg>
