<svg xmlns="http://www.w3.org/2000/svg" width="225" height="228" viewBox="0 0 225 228">
  <g fill="none" fill-rule="evenodd" transform="translate(-30 -24)">
    <path fill="#1F5279" d="M103.058615,125.48 C102.14661,124.327994 100.910622,123.476003 99.3506148,122.924 C97.7906068,122.371997 96.3146216,122.096 94.9226148,122.096 C94.1066108,122.096 93.2666192,122.191999 92.4026148,122.384 C91.5386104,122.576001 90.7226188,122.875998 89.9546148,123.284 C89.1866108,123.692002 88.5626172,124.231997 88.0826148,124.904 C87.6026124,125.576003 87.3626148,126.391995 87.3626148,127.352 C87.3626148,128.888008 87.9386092,130.063996 89.0906148,130.88 C90.2426204,131.696004 91.694606,132.391997 93.4466148,132.968 C95.1986236,133.544003 97.0826048,134.119997 99.0986148,134.696 C101.114625,135.272003 102.998606,136.087995 104.750615,137.144 C106.502624,138.200005 107.954609,139.615991 109.106615,141.392 C110.25862,143.168009 110.834615,145.543985 110.834615,148.52 C110.834615,151.352014 110.30662,153.82399 109.250615,155.936 C108.19461,158.04801 106.766624,159.799993 104.966615,161.192 C103.166606,162.584007 101.078627,163.615997 98.7026148,164.288 C96.3266028,164.960003 93.818628,165.296 91.1786148,165.296 C87.8665984,165.296 84.7946288,164.792005 81.9626148,163.784 C79.1306008,162.775995 76.4906272,161.144011 74.0426148,158.888 L82.0346148,150.104 C83.1866204,151.640008 84.638606,152.827996 86.3906148,153.668 C88.1426236,154.508004 89.9546056,154.928 91.8266148,154.928 C92.7386192,154.928 93.66261,154.820001 94.5986148,154.604 C95.5346196,154.387999 96.3746112,154.064002 97.1186148,153.632 C97.8626184,153.199998 98.4626124,152.648003 98.9186148,151.976 C99.3746172,151.303997 99.6026148,150.512004 99.6026148,149.6 C99.6026148,148.063992 99.0146208,146.852004 97.8386148,145.964 C96.6626088,145.075996 95.1866236,144.320003 93.4106148,143.696 C91.634606,143.071997 89.7146252,142.448003 87.6506148,141.824 C85.5866044,141.199997 83.6666236,140.360005 81.8906148,139.304 C80.114606,138.247995 78.6386208,136.856009 77.4626148,135.128 C76.2866088,133.399991 75.6986148,131.120014 75.6986148,128.288 C75.6986148,125.551986 76.2386092,123.15201 77.3186148,121.088 C78.39862,119.02399 79.8386056,117.296007 81.6386148,115.904 C83.4386236,114.511993 85.5146032,113.468004 87.8666148,112.772 C90.2186264,112.075996 92.6426024,111.728 95.1386148,111.728 C98.0186292,111.728 100.802601,112.135996 103.490615,112.952 C106.178628,113.768004 108.602604,115.13599 110.762615,117.056 L103.058615,125.48 L103.058615,125.48 Z M119.186615,113.024 L130.418615,113.024 L130.418615,132.032 L152.234615,132.032 L152.234615,113.024 L163.466615,113.024 L163.466615,164 L152.234615,164 L152.234615,141.968 L130.418615,141.968 L130.418615,164 L119.186615,164 L119.186615,113.024 L119.186615,113.024 Z M173.834615,113.024 L193.562615,113.024 C196.154628,113.024 198.614603,113.275998 200.942615,113.78 C203.270626,114.284002 205.310606,115.123994 207.062615,116.3 C208.814624,117.476006 210.20661,119.05999 211.238615,121.052 C212.27062,123.04401 212.786615,125.527985 212.786615,128.504 C212.786615,132.104018 211.850624,135.163987 209.978615,137.684 C208.106606,140.204012 205.370633,141.799997 201.770615,142.472 L214.730615,164 L201.266615,164 L190.610615,143.624 L185.066615,143.624 L185.066615,164 L173.834615,164 L173.834615,113.024 L173.834615,113.024 Z M185.066615,134.12 L191.690615,134.12 C192.69862,134.12 193.766609,134.084 194.894615,134.012 C196.02262,133.94 197.04261,133.724002 197.954615,133.364 C198.866619,133.003998 199.622612,132.440004 200.222615,131.672 C200.822618,130.903996 201.122615,129.824007 201.122615,128.432 C201.122615,127.135994 200.858618,126.104004 200.330615,125.336 C199.802612,124.567996 199.130619,123.980002 198.314615,123.572 C197.498611,123.163998 196.56262,122.888001 195.506615,122.744 C194.45061,122.599999 193.41862,122.528 192.410615,122.528 L185.066615,122.528 L185.066615,134.12 L185.066615,134.12 Z" opacity=".9"/>
    <path stroke="#7FC1DD" stroke-width="18.45" d="M150.168352,242.084883 C203.234975,238.265238 245.100381,194.003216 245.100381,139.963005 C245.100381,83.4149574 199.259131,37.5737079 142.711084,37.5737079 C86.1630367,37.5737079 40.3217872,83.4149574 40.3217872,139.963005 C40.3217872,150.792361 42.0062784,160.854786 44.9076111,170.083087" transform="rotate(150 142.711 139.83)"/>
    <path stroke="#295677" stroke-width="18.45" d="M171.714927,241.211067 C213.066891,228.051876 243.022708,189.336458 243.022708,143.624484 C243.022708,87.0764377 197.181458,41.2351879 140.633411,41.2351879 C84.0853643,41.2351879 38.2441146,87.0764377 38.2441146,143.624484 C38.2441146,161.987134 43.0873337,178.144715 50.4938568,191.769646 C65.8958303,220.10289 92.3825071,237.483987 109.451489,240.967107" transform="rotate(-125 140.633 141.223)"/>
    <path fill="#F7F7FF" stroke="#295677" stroke-width="11.25" d="M203.174473,82.6575872 C217.623604,82.6575872 229.336938,70.9442524 229.336938,56.4951219 C229.336938,42.0459914 217.623604,30.3326567 203.174473,30.3326567 C188.725342,30.3326567 177.012008,42.0459914 177.012008,56.4951219 C177.012008,70.9442524 188.725342,82.6575872 203.174473,82.6575872 L203.174473,82.6575872 Z"/>
    <path fill="#2A5677" d="M203.379424,67.3425816 C209.366587,67.3425816 214.22014,62.489028 214.22014,56.5018657 C214.22014,50.5147036 209.366587,45.6611498 203.379424,45.6611498 C197.392262,45.6611498 192.538709,50.5147036 192.538709,56.5018657 C192.538709,62.489028 197.392262,67.3425816 203.379424,67.3425816 L203.379424,67.3425816 Z"/>
  </g>
</svg>
