<svg xmlns="http://www.w3.org/2000/svg" width="578" height="578" viewBox="0 0 578 578">
  <g fill="none" fill-rule="evenodd">
    <rect width="23.983" height="23.983" fill="#F1FCFD"/>
    <rect width="23.983" height="23.983" x="26.382" fill="#E8FBFC"/>
    <rect width="23.983" height="23.983" x="52.763" fill="#F7FEFE"/>
    <rect width="23.983" height="23.983" x="79.145" fill="#F7FEFE"/>
    <rect width="23.983" height="23.983" x="105.527" fill="#E1F4FC"/>
    <rect width="23.983" height="23.983" x="131.909" fill="#E5F1FE"/>
    <rect width="23.983" height="23.983" x="158.29" fill="#F1FCFD"/>
    <rect width="23.983" height="23.983" x="184.672" fill="#F1FCFD"/>
    <rect width="23.983" height="23.983" x="211.054" fill="#E8FBFC"/>
    <rect width="23.983" height="23.983" x="237.436" fill="#E8FBFC"/>
    <rect width="23.983" height="23.983" x="263.817" fill="#E1F4FC"/>
    <rect width="23.983" height="23.983" x="290.199" fill="#F5FDFE"/>
    <rect width="23.983" height="23.983" x="316.581" fill="#F5FDFE"/>
    <rect width="23.983" height="23.983" x="342.963" fill="#D9F0FF"/>
    <rect width="23.983" height="23.983" x="369.344" fill="#F7FEFE"/>
    <rect width="23.983" height="23.983" x="395.726" fill="#F1FCFD"/>
    <rect width="23.983" height="23.983" x="422.108" fill="#E5F1FE"/>
    <rect width="23.983" height="23.983" x="448.49" fill="#D9F0FF"/>
    <rect width="23.983" height="23.983" x="474.871" fill="#F1FCFD"/>
    <rect width="23.983" height="23.983" x="501.253" fill="#E8FBFC"/>
    <rect width="23.983" height="23.983" x="527.635" fill="#D9F0FF"/>
    <rect width="23.983" height="23.983" x="554.017" fill="#D9F0FF"/>
    <rect width="23.983" height="23.983" y="26.382" fill="#E5F1FE"/>
    <rect width="23.983" height="23.983" x="26.382" y="26.382" fill="#E5F1FE"/>
    <rect width="23.983" height="23.983" x="52.763" y="26.382" fill="#E5F1FE"/>
    <rect width="23.983" height="23.983" x="79.145" y="26.382" fill="#F7FEFE"/>
    <rect width="23.983" height="23.983" x="105.527" y="26.382" fill="#E5F1FE"/>
    <rect width="23.983" height="23.983" x="131.909" y="26.382" fill="#E1F4FC"/>
    <rect width="23.983" height="23.983" x="158.29" y="26.382" fill="#E1F4FC"/>
    <rect width="23.983" height="23.983" x="184.672" y="26.382" fill="#E1F4FC"/>
    <rect width="23.983" height="23.983" x="211.054" y="26.382" fill="#E1F4FC"/>
    <rect width="23.983" height="23.983" x="237.436" y="26.382" fill="#D9F0FF"/>
    <rect width="23.983" height="23.983" x="263.817" y="26.382" fill="#E5F1FE"/>
    <rect width="23.983" height="23.983" x="290.199" y="26.382" fill="#D9F0FF"/>
    <rect width="23.983" height="23.983" x="316.581" y="26.382" fill="#E5F1FE"/>
    <rect width="23.983" height="23.983" x="342.963" y="26.382" fill="#E5F1FE"/>
    <rect width="23.983" height="23.983" x="369.344" y="26.382" fill="#D9F0FF"/>
    <rect width="23.983" height="23.983" x="395.726" y="26.382" fill="#D9F0FF"/>
    <rect width="23.983" height="23.983" x="422.108" y="26.382" fill="#F5FDFE"/>
    <rect width="23.983" height="23.983" x="448.49" y="26.382" fill="#F5FDFE"/>
    <rect width="23.983" height="23.983" x="474.871" y="26.382" fill="#D9F0FF"/>
    <rect width="23.983" height="23.983" x="501.253" y="26.382" fill="#F1FCFD"/>
    <rect width="23.983" height="23.983" x="527.635" y="26.382" fill="#F5FDFE"/>
    <rect width="23.983" height="23.983" x="554.017" y="26.382" fill="#F5FDFE"/>
    <rect width="23.983" height="23.983" y="52.763" fill="#E1F4FC"/>
    <rect width="23.983" height="23.983" x="26.382" y="52.763" fill="#F1FCFD"/>
    <rect width="23.983" height="23.983" x="52.763" y="52.763" fill="#E5F1FE"/>
    <rect width="23.983" height="23.983" x="79.145" y="52.763" fill="#E5F1FE"/>
    <rect width="23.983" height="23.983" x="105.527" y="52.763" fill="#E5F1FE"/>
    <rect width="23.983" height="23.983" x="131.909" y="52.763" fill="#E5F1FE"/>
    <rect width="23.983" height="23.983" x="158.29" y="52.763" fill="#E1F4FC"/>
    <rect width="23.983" height="23.983" x="184.672" y="52.763" fill="#D9F0FF"/>
    <rect width="23.983" height="23.983" x="211.054" y="52.763" fill="#E1F4FC"/>
    <rect width="23.983" height="23.983" x="237.436" y="52.763" fill="#E5F1FE"/>
    <rect width="23.983" height="23.983" x="263.817" y="52.763" fill="#E1F4FC"/>
    <rect width="23.983" height="23.983" x="290.199" y="52.763" fill="#E5F1FE"/>
    <rect width="23.983" height="23.983" x="316.581" y="52.763" fill="#E5F1FE"/>
    <rect width="23.983" height="23.983" x="342.963" y="52.763" fill="#E1F4FC"/>
    <rect width="23.983" height="23.983" x="369.344" y="52.763" fill="#E5F1FE"/>
    <rect width="23.983" height="23.983" x="395.726" y="52.763" fill="#F7FEFE"/>
    <rect width="23.983" height="23.983" x="422.108" y="52.763" fill="#F1FCFD"/>
    <rect width="23.983" height="23.983" x="448.49" y="52.763" fill="#E1F4FC"/>
    <rect width="23.983" height="23.983" x="474.871" y="52.763" fill="#E8FBFC"/>
    <rect width="23.983" height="23.983" x="501.253" y="52.763" fill="#D9F0FF"/>
    <rect width="23.983" height="23.983" x="527.635" y="52.763" fill="#E5F1FE"/>
    <rect width="23.983" height="23.983" x="554.017" y="52.763" fill="#E5F1FE"/>
    <rect width="23.983" height="23.983" y="79.145" fill="#E1F4FC"/>
    <rect width="23.983" height="23.983" x="26.382" y="79.145" fill="#F7FEFE"/>
    <rect width="23.983" height="23.983" x="52.763" y="79.145" fill="#E8FBFC"/>
    <rect width="23.983" height="23.983" x="79.145" y="79.145" fill="#F1FCFD"/>
    <rect width="23.983" height="23.983" x="105.527" y="79.145" fill="#E1F4FC"/>
    <rect width="23.983" height="23.983" x="131.909" y="79.145" fill="#F1FCFD"/>
    <rect width="23.983" height="23.983" x="158.29" y="79.145" fill="#E1F4FC"/>
    <rect width="23.983" height="23.983" x="184.672" y="79.145" fill="#E5F1FE"/>
    <rect width="23.983" height="23.983" x="211.054" y="79.145" fill="#E5F1FE"/>
    <rect width="23.983" height="23.983" x="237.436" y="79.145" fill="#F1FCFD"/>
    <rect width="23.983" height="23.983" x="263.817" y="79.145" fill="#E1F4FC"/>
    <rect width="23.983" height="23.983" x="290.199" y="79.145" fill="#E5F1FE"/>
    <rect width="23.983" height="23.983" x="316.581" y="79.145" fill="#E8FBFC"/>
    <rect width="23.983" height="23.983" x="342.963" y="79.145" fill="#F1FCFD"/>
    <rect width="23.983" height="23.983" x="369.344" y="79.145" fill="#E1F4FC"/>
    <rect width="23.983" height="23.983" x="395.726" y="79.145" fill="#D9F0FF"/>
    <rect width="23.983" height="23.983" x="422.108" y="79.145" fill="#E5F1FE"/>
    <rect width="23.983" height="23.983" x="448.49" y="79.145" fill="#E1F4FC"/>
    <rect width="23.983" height="23.983" x="474.871" y="79.145" fill="#F1FCFD"/>
    <rect width="23.983" height="23.983" x="501.253" y="79.145" fill="#F1FCFD"/>
    <rect width="23.983" height="23.983" x="527.635" y="79.145" fill="#E5F1FE"/>
    <rect width="23.983" height="23.983" x="554.017" y="79.145" fill="#E1F4FC"/>
    <rect width="23.983" height="23.983" y="105.527" fill="#E8FBFC"/>
    <rect width="23.983" height="23.983" x="26.382" y="105.527" fill="#E8FBFC"/>
    <rect width="23.983" height="23.983" x="52.763" y="105.527" fill="#F7FEFE"/>
    <rect width="23.983" height="23.983" x="79.145" y="105.527" fill="#E1F4FC"/>
    <rect width="23.983" height="23.983" x="105.527" y="105.527" fill="#F1FCFD"/>
    <rect width="23.983" height="23.983" x="131.909" y="105.527" fill="#F7FEFE"/>
    <rect width="23.983" height="23.983" x="158.29" y="105.527" fill="#E1F4FC"/>
    <rect width="23.983" height="23.983" x="184.672" y="105.527" fill="#D9F0FF"/>
    <rect width="23.983" height="23.983" x="211.054" y="105.527" fill="#E8FBFC"/>
    <rect width="23.983" height="23.983" x="237.436" y="105.527" fill="#F1FCFD"/>
    <rect width="23.983" height="23.983" x="263.817" y="105.527" fill="#E8FBFC"/>
    <rect width="23.983" height="23.983" x="290.199" y="105.527" fill="#E8FBFC"/>
    <rect width="23.983" height="23.983" x="316.581" y="105.527" fill="#E8FBFC"/>
    <rect width="23.983" height="23.983" x="342.963" y="105.527" fill="#F1FCFD"/>
    <rect width="23.983" height="23.983" x="369.344" y="105.527" fill="#E8FBFC"/>
    <rect width="23.983" height="23.983" x="395.726" y="105.527" fill="#E1F4FC"/>
    <rect width="23.983" height="23.983" x="422.108" y="105.527" fill="#F1FCFD"/>
    <rect width="23.983" height="23.983" x="448.49" y="105.527" fill="#E8FBFC"/>
    <rect width="23.983" height="23.983" x="474.871" y="105.527" fill="#F1FCFD"/>
    <rect width="23.983" height="23.983" x="501.253" y="105.527" fill="#F1FCFD"/>
    <rect width="23.983" height="23.983" x="527.635" y="105.527" fill="#F1FCFD"/>
    <rect width="23.983" height="23.983" x="554.017" y="105.527" fill="#F1FCFD"/>
    <rect width="23.983" height="23.983" y="131.909" fill="#F1EBFD"/>
    <rect width="23.983" height="23.983" x="26.382" y="131.909" fill="#F1EBFD"/>
    <rect width="23.983" height="23.983" x="52.763" y="131.909" fill="#F1EBFD"/>
    <rect width="23.983" height="23.983" x="79.145" y="131.909" fill="#F1EBFD"/>
    <rect width="23.983" height="23.983" x="105.527" y="131.909" fill="#F1EBFD"/>
    <rect width="23.983" height="23.983" x="131.909" y="131.909" fill="#F1EBFD"/>
    <rect width="23.983" height="23.983" x="158.29" y="131.909" fill="#FDFCFF"/>
    <rect width="23.983" height="23.983" x="184.672" y="131.909" fill="#F1EBFD"/>
    <rect width="23.983" height="23.983" x="211.054" y="131.909" fill="#F9F5FF"/>
    <rect width="23.983" height="23.983" x="237.436" y="131.909" fill="#F1EBFD"/>
    <rect width="23.983" height="23.983" x="263.817" y="131.909" fill="#F1EBFD"/>
    <rect width="23.983" height="23.983" x="290.199" y="131.909" fill="#F1EBFD"/>
    <rect width="23.983" height="23.983" x="316.581" y="131.909" fill="#F9F5FF"/>
    <rect width="23.983" height="23.983" x="342.963" y="131.909" fill="#F1EBFD"/>
    <rect width="23.983" height="23.983" x="369.344" y="131.909" fill="#FDFCFF"/>
    <rect width="23.983" height="23.983" x="395.726" y="131.909" fill="#FDFCFF"/>
    <rect width="23.983" height="23.983" x="422.108" y="131.909" fill="#FDFCFF"/>
    <rect width="23.983" height="23.983" x="448.49" y="131.909" fill="#FDFCFF"/>
    <rect width="23.983" height="23.983" x="474.871" y="131.909" fill="#F1EBFD"/>
    <rect width="23.983" height="23.983" x="501.253" y="131.909" fill="#F1EBFD"/>
    <rect width="23.983" height="23.983" x="527.635" y="131.909" fill="#F1EBFD"/>
    <rect width="23.983" height="23.983" x="554.017" y="131.909" fill="#FDFCFF"/>
    <rect width="23.983" height="23.983" y="158.29" fill="#F1EBFD"/>
    <rect width="23.983" height="23.983" x="26.382" y="158.29" fill="#FDFCFF"/>
    <rect width="23.983" height="23.983" x="52.763" y="158.29" fill="#FDFCFF"/>
    <rect width="23.983" height="23.983" x="79.145" y="158.29" fill="#F1EBFD"/>
    <rect width="23.983" height="23.983" x="105.527" y="158.29" fill="#FDFCFF"/>
    <rect width="23.983" height="23.983" x="131.909" y="158.29" fill="#F1EBFD"/>
    <rect width="23.983" height="23.983" x="158.29" y="158.29" fill="#F1EBFD"/>
    <rect width="23.983" height="23.983" x="184.672" y="158.29" fill="#FDFCFF"/>
    <rect width="23.983" height="23.983" x="211.054" y="158.29" fill="#F1EBFD"/>
    <rect width="23.983" height="23.983" x="237.436" y="158.29" fill="#FDFCFF"/>
    <rect width="23.983" height="23.983" x="263.817" y="158.29" fill="#F1EBFD"/>
    <rect width="23.983" height="23.983" x="290.199" y="158.29" fill="#F9F5FF"/>
    <rect width="23.983" height="23.983" x="316.581" y="158.29" fill="#FDFCFF"/>
    <rect width="23.983" height="23.983" x="342.963" y="158.29" fill="#F9F5FF"/>
    <rect width="23.983" height="23.983" x="369.344" y="158.29" fill="#FDFCFF"/>
    <rect width="23.983" height="23.983" x="395.726" y="158.29" fill="#F1EBFD"/>
    <rect width="23.983" height="23.983" x="422.108" y="158.29" fill="#F9F5FF"/>
    <rect width="23.983" height="23.983" x="448.49" y="158.29" fill="#F1EBFD"/>
    <rect width="23.983" height="23.983" x="474.871" y="158.29" fill="#FDFCFF"/>
    <rect width="23.983" height="23.983" x="501.253" y="158.29" fill="#FDFCFF"/>
    <rect width="23.983" height="23.983" x="527.635" y="158.29" fill="#FDFCFF"/>
    <rect width="23.983" height="23.983" x="554.017" y="158.29" fill="#F1EBFD"/>
    <rect width="23.983" height="23.983" y="184.672" fill="#F1EBFD"/>
    <rect width="23.983" height="23.983" x="26.382" y="184.672" fill="#F9F5FF"/>
    <rect width="23.983" height="23.983" x="52.763" y="184.672" fill="#F9F5FF"/>
    <rect width="23.983" height="23.983" x="79.145" y="184.672" fill="#F1EBFD"/>
    <rect width="23.983" height="23.983" x="105.527" y="184.672" fill="#FDFCFF"/>
    <rect width="23.983" height="23.983" x="131.909" y="184.672" fill="#F1EBFD"/>
    <rect width="23.983" height="23.983" x="158.29" y="184.672" fill="#F1EBFD"/>
    <rect width="23.983" height="23.983" x="184.672" y="184.672" fill="#FDFCFF"/>
    <rect width="23.983" height="23.983" x="211.054" y="184.672" fill="#F1EBFD"/>
    <rect width="23.983" height="23.983" x="237.436" y="184.672" fill="#F1EBFD"/>
    <rect width="23.983" height="23.983" x="263.817" y="184.672" fill="#FDFCFF"/>
    <rect width="23.983" height="23.983" x="290.199" y="184.672" fill="#F1EBFD"/>
    <rect width="23.983" height="23.983" x="316.581" y="184.672" fill="#F1EBFD"/>
    <rect width="23.983" height="23.983" x="342.963" y="184.672" fill="#FDFCFF"/>
    <rect width="23.983" height="23.983" x="369.344" y="184.672" fill="#F1EBFD"/>
    <rect width="23.983" height="23.983" x="395.726" y="184.672" fill="#F9F5FF"/>
    <rect width="23.983" height="23.983" x="422.108" y="184.672" fill="#F1EBFD"/>
    <rect width="23.983" height="23.983" x="448.49" y="184.672" fill="#FDFCFF"/>
    <rect width="23.983" height="23.983" x="474.871" y="184.672" fill="#F1EBFD"/>
    <rect width="23.983" height="23.983" x="501.253" y="184.672" fill="#F9F5FF"/>
    <rect width="23.983" height="23.983" x="527.635" y="184.672" fill="#F1EBFD"/>
    <rect width="23.983" height="23.983" x="554.017" y="184.672" fill="#FDFCFF"/>
    <rect width="23.983" height="23.983" y="211.054" fill="#FFF8ED"/>
    <rect width="23.983" height="23.983" x="26.382" y="211.054" fill="#FFF8ED"/>
    <rect width="23.983" height="23.983" x="52.763" y="211.054" fill="#F7EDE5"/>
    <rect width="23.983" height="23.983" x="79.145" y="211.054" fill="#FFF8ED"/>
    <rect width="23.983" height="23.983" x="105.527" y="211.054" fill="#FFF8ED"/>
    <rect width="23.983" height="23.983" x="131.909" y="211.054" fill="#F7EDE5"/>
    <rect width="23.983" height="23.983" x="158.29" y="211.054" fill="#FFF8ED"/>
    <rect width="23.983" height="23.983" x="184.672" y="211.054" fill="#FFF8ED"/>
    <rect width="23.983" height="23.983" x="211.054" y="211.054" fill="#FFFAF3"/>
    <rect width="23.983" height="23.983" x="237.436" y="211.054" fill="#F7EDE5"/>
    <rect width="23.983" height="23.983" x="263.817" y="211.054" fill="#FFF8ED"/>
    <rect width="23.983" height="23.983" x="290.199" y="211.054" fill="#FFFAF3"/>
    <rect width="23.983" height="23.983" x="316.581" y="211.054" fill="#FFF8ED"/>
    <rect width="23.983" height="23.983" x="342.963" y="211.054" fill="#FFF8ED"/>
    <rect width="23.983" height="23.983" x="369.344" y="211.054" fill="#FFF8ED"/>
    <rect width="23.983" height="23.983" x="395.726" y="211.054" fill="#FFF1DB"/>
    <rect width="23.983" height="23.983" x="422.108" y="211.054" fill="#FFF1DB"/>
    <rect width="23.983" height="23.983" x="448.49" y="211.054" fill="#FFF8ED"/>
    <rect width="23.983" height="23.983" x="474.871" y="211.054" fill="#FFF8ED"/>
    <rect width="23.983" height="23.983" x="501.253" y="211.054" fill="#FFF1DB"/>
    <rect width="23.983" height="23.983" x="527.635" y="211.054" fill="#FFF8ED"/>
    <rect width="23.983" height="23.983" x="554.017" y="211.054" fill="#FFF8ED"/>
    <rect width="23.983" height="23.983" y="237.436" fill="#FFF8ED"/>
    <rect width="23.983" height="23.983" x="26.382" y="237.436" fill="#FFF1DB"/>
    <rect width="23.983" height="23.983" x="52.763" y="237.436" fill="#FFF1DB"/>
    <rect width="23.983" height="23.983" x="79.145" y="237.436" fill="#FFF8ED"/>
    <rect width="23.983" height="23.983" x="105.527" y="237.436" fill="#FFFAF3"/>
    <rect width="23.983" height="23.983" x="131.909" y="237.436" fill="#FFF8ED"/>
    <rect width="23.983" height="23.983" x="158.29" y="237.436" fill="#FFF1DB"/>
    <rect width="23.983" height="23.983" x="184.672" y="237.436" fill="#FFFAF3"/>
    <rect width="23.983" height="23.983" x="211.054" y="237.436" fill="#FFF8ED"/>
    <rect width="23.983" height="23.983" x="237.436" y="237.436" fill="#F7EDE5"/>
    <rect width="23.983" height="23.983" x="263.817" y="237.436" fill="#FFF8ED"/>
    <rect width="23.983" height="23.983" x="290.199" y="237.436" fill="#FFFAF3"/>
    <rect width="23.983" height="23.983" x="316.581" y="237.436" fill="#FFF1DB"/>
    <rect width="23.983" height="23.983" x="342.963" y="237.436" fill="#FFFAF3"/>
    <rect width="23.983" height="23.983" x="369.344" y="237.436" fill="#F7EDE5"/>
    <rect width="23.983" height="23.983" x="395.726" y="237.436" fill="#FFF8ED"/>
    <rect width="23.983" height="23.983" x="422.108" y="237.436" fill="#FFFAF3"/>
    <rect width="23.983" height="23.983" x="448.49" y="237.436" fill="#F7EDE5"/>
    <rect width="23.983" height="23.983" x="474.871" y="237.436" fill="#F7EDE5"/>
    <rect width="23.983" height="23.983" x="501.253" y="237.436" fill="#FFF8ED"/>
    <rect width="23.983" height="23.983" x="527.635" y="237.436" fill="#FFF8ED"/>
    <rect width="23.983" height="23.983" x="554.017" y="237.436" fill="#F7EDE5"/>
    <rect width="23.983" height="23.983" y="263.817" fill="#FFF8ED"/>
    <rect width="23.983" height="23.983" x="26.382" y="263.817" fill="#FFFAF3"/>
    <rect width="23.983" height="23.983" x="52.763" y="263.817" fill="#FFF8ED"/>
    <rect width="23.983" height="23.983" x="79.145" y="263.817" fill="#FFFAF3"/>
    <rect width="23.983" height="23.983" x="105.527" y="263.817" fill="#FFF1DB"/>
    <rect width="23.983" height="23.983" x="131.909" y="263.817" fill="#F7EDE5"/>
    <rect width="23.983" height="23.983" x="158.29" y="263.817" fill="#FFF8ED"/>
    <rect width="23.983" height="23.983" x="184.672" y="263.817" fill="#FFF8ED"/>
    <rect width="23.983" height="23.983" x="211.054" y="263.817" fill="#FFF1DB"/>
    <rect width="23.983" height="23.983" x="237.436" y="263.817" fill="#FFF8ED"/>
    <rect width="23.983" height="23.983" x="263.817" y="263.817" fill="#F7EDE5"/>
    <rect width="23.983" height="23.983" x="290.199" y="263.817" fill="#F7EDE5"/>
    <rect width="23.983" height="23.983" x="316.581" y="263.817" fill="#FFF8ED"/>
    <rect width="23.983" height="23.983" x="342.963" y="263.817" fill="#FFFAF3"/>
    <rect width="23.983" height="23.983" x="369.344" y="263.817" fill="#FFF8ED"/>
    <rect width="23.983" height="23.983" x="395.726" y="263.817" fill="#F7EDE5"/>
    <rect width="23.983" height="23.983" x="422.108" y="263.817" fill="#FFF8ED"/>
    <rect width="23.983" height="23.983" x="448.49" y="263.817" fill="#FFF8ED"/>
    <rect width="23.983" height="23.983" x="474.871" y="263.817" fill="#FFF1DB"/>
    <rect width="23.983" height="23.983" x="501.253" y="263.817" fill="#FFFAF3"/>
    <rect width="23.983" height="23.983" x="527.635" y="263.817" fill="#FFFAF3"/>
    <rect width="23.983" height="23.983" x="554.017" y="263.817" fill="#FFF1DB"/>
    <rect width="23.983" height="23.983" y="290.199" fill="#FFF8ED"/>
    <rect width="23.983" height="23.983" x="26.382" y="290.199" fill="#F7EDE5"/>
    <rect width="23.983" height="23.983" x="52.763" y="290.199" fill="#F7EDE5"/>
    <rect width="23.983" height="23.983" x="79.145" y="290.199" fill="#FFF1DB"/>
    <rect width="23.983" height="23.983" x="105.527" y="290.199" fill="#FFF8ED"/>
    <rect width="23.983" height="23.983" x="131.909" y="290.199" fill="#F7EDE5"/>
    <rect width="23.983" height="23.983" x="158.29" y="290.199" fill="#FFF8ED"/>
    <rect width="23.983" height="23.983" x="184.672" y="290.199" fill="#FFFAF3"/>
    <rect width="23.983" height="23.983" x="211.054" y="290.199" fill="#FFF8ED"/>
    <rect width="23.983" height="23.983" x="237.436" y="290.199" fill="#FFF1DB"/>
    <rect width="23.983" height="23.983" x="263.817" y="290.199" fill="#FFF8ED"/>
    <rect width="23.983" height="23.983" x="290.199" y="290.199" fill="#FFF1DB"/>
    <rect width="23.983" height="23.983" x="316.581" y="290.199" fill="#FFF8ED"/>
    <rect width="23.983" height="23.983" x="342.963" y="290.199" fill="#FFF1DB"/>
    <rect width="23.983" height="23.983" x="369.344" y="290.199" fill="#FFF8ED"/>
    <rect width="23.983" height="23.983" x="395.726" y="290.199" fill="#FFF1DB"/>
    <rect width="23.983" height="23.983" x="422.108" y="290.199" fill="#FFFAF3"/>
    <rect width="23.983" height="23.983" x="448.49" y="290.199" fill="#FFF8ED"/>
    <rect width="23.983" height="23.983" x="474.871" y="290.199" fill="#FFF8ED"/>
    <rect width="23.983" height="23.983" x="501.253" y="290.199" fill="#FFFAF3"/>
    <rect width="23.983" height="23.983" x="527.635" y="290.199" fill="#FFFAF3"/>
    <rect width="23.983" height="23.983" x="554.017" y="290.199" fill="#FFF1DB"/>
    <rect width="23.983" height="23.983" y="316.581" fill="#F7EDE5"/>
    <rect width="23.983" height="23.983" x="26.382" y="316.581" fill="#FFF8ED"/>
    <rect width="23.983" height="23.983" x="52.763" y="316.581" fill="#FFF8ED"/>
    <rect width="23.983" height="23.983" x="79.145" y="316.581" fill="#FFF8ED"/>
    <rect width="23.983" height="23.983" x="105.527" y="316.581" fill="#F7EDE5"/>
    <rect width="23.983" height="23.983" x="131.909" y="316.581" fill="#FFF8ED"/>
    <rect width="23.983" height="23.983" x="158.29" y="316.581" fill="#FFF8ED"/>
    <rect width="23.983" height="23.983" x="184.672" y="316.581" fill="#FFF1DB"/>
    <rect width="23.983" height="23.983" x="211.054" y="316.581" fill="#FFF8ED"/>
    <rect width="23.983" height="23.983" x="237.436" y="316.581" fill="#FFF8ED"/>
    <rect width="23.983" height="23.983" x="263.817" y="316.581" fill="#FFF1DB"/>
    <rect width="23.983" height="23.983" x="290.199" y="316.581" fill="#FFF8ED"/>
    <rect width="23.983" height="23.983" x="316.581" y="316.581" fill="#F7EDE5"/>
    <rect width="23.983" height="23.983" x="342.963" y="316.581" fill="#FFF8ED"/>
    <rect width="23.983" height="23.983" x="369.344" y="316.581" fill="#F7EDE5"/>
    <rect width="23.983" height="23.983" x="395.726" y="316.581" fill="#FFF8ED"/>
    <rect width="23.983" height="23.983" x="422.108" y="316.581" fill="#FFFAF3"/>
    <rect width="23.983" height="23.983" x="448.49" y="316.581" fill="#FFF1DB"/>
    <rect width="23.983" height="23.983" x="474.871" y="316.581" fill="#F7EDE5"/>
    <rect width="23.983" height="23.983" x="501.253" y="316.581" fill="#FFF8ED"/>
    <rect width="23.983" height="23.983" x="527.635" y="316.581" fill="#F7EDE5"/>
    <rect width="23.983" height="23.983" x="554.017" y="316.581" fill="#FFF8ED"/>
    <rect width="23.983" height="23.983" y="342.963" fill="#F7FADF"/>
    <rect width="23.983" height="23.983" x="26.382" y="342.963" fill="#F7FADF"/>
    <rect width="23.983" height="23.983" x="52.763" y="342.963" fill="#FCFDF2"/>
    <rect width="23.983" height="23.983" x="79.145" y="342.963" fill="#F1F8C1"/>
    <rect width="23.983" height="23.983" x="105.527" y="342.963" fill="#F7FADF"/>
    <rect width="23.983" height="23.983" x="131.909" y="342.963" fill="#FCFDF2"/>
    <rect width="23.983" height="23.983" x="158.29" y="342.963" fill="#F7FADF"/>
    <rect width="23.983" height="23.983" x="184.672" y="342.963" fill="#FCFDF2"/>
    <rect width="23.983" height="23.983" x="211.054" y="342.963" fill="#F1F8C1"/>
    <rect width="23.983" height="23.983" x="237.436" y="342.963" fill="#F7FADF"/>
    <rect width="23.983" height="23.983" x="263.817" y="342.963" fill="#F7FADF"/>
    <rect width="23.983" height="23.983" x="290.199" y="342.963" fill="#FCFDF2"/>
    <rect width="23.983" height="23.983" x="316.581" y="342.963" fill="#FCFDF2"/>
    <rect width="23.983" height="23.983" x="342.963" y="342.963" fill="#F7FADF"/>
    <rect width="23.983" height="23.983" x="369.344" y="342.963" fill="#F1F8C1"/>
    <rect width="23.983" height="23.983" x="395.726" y="342.963" fill="#FCFDF2"/>
    <rect width="23.983" height="23.983" x="422.108" y="342.963" fill="#F7FADF"/>
    <rect width="23.983" height="23.983" x="448.49" y="342.963" fill="#F7FADF"/>
    <rect width="23.983" height="23.983" x="474.871" y="342.963" fill="#FCFDF2"/>
    <rect width="23.983" height="23.983" x="501.253" y="342.963" fill="#F7FADF"/>
    <rect width="23.983" height="23.983" x="527.635" y="342.963" fill="#F7FADF"/>
    <rect width="23.983" height="23.983" x="554.017" y="342.963" fill="#F1F8C1"/>
    <rect width="23.983" height="23.983" y="369.344" fill="#E1FDF3"/>
    <rect width="23.983" height="23.983" x="26.382" y="369.344" fill="#E1FDF3"/>
    <rect width="23.983" height="23.983" x="52.763" y="369.344" fill="#E1FDF3"/>
    <rect width="23.983" height="23.983" x="79.145" y="369.344" fill="#F1FCFD"/>
    <rect width="23.983" height="23.983" x="105.527" y="369.344" fill="#E1FDF3"/>
    <rect width="23.983" height="23.983" x="131.909" y="369.344" fill="#E1FDF3"/>
    <rect width="23.983" height="23.983" x="158.29" y="369.344" fill="#E1FDF3"/>
    <rect width="23.983" height="23.983" x="184.672" y="369.344" fill="#E1FDF3"/>
    <rect width="23.983" height="23.983" x="211.054" y="369.344" fill="#F1FCFD"/>
    <rect width="23.983" height="23.983" x="237.436" y="369.344" fill="#E1FDF3"/>
    <rect width="23.983" height="23.983" x="263.817" y="369.344" fill="#E1FDF3"/>
    <rect width="23.983" height="23.983" x="290.199" y="369.344" fill="#E1FDF3"/>
    <rect width="23.983" height="23.983" x="316.581" y="369.344" fill="#E1FDF3"/>
    <rect width="23.983" height="23.983" x="342.963" y="369.344" fill="#E1FDF3"/>
    <rect width="23.983" height="23.983" x="369.344" y="369.344" fill="#E1FDF3"/>
    <rect width="23.983" height="23.983" x="395.726" y="369.344" fill="#F1FCFD"/>
    <rect width="23.983" height="23.983" x="422.108" y="369.344" fill="#E1FDF3"/>
    <rect width="23.983" height="23.983" x="448.49" y="369.344" fill="#E1FDF3"/>
    <rect width="23.983" height="23.983" x="474.871" y="369.344" fill="#E1FDF3"/>
    <rect width="23.983" height="23.983" x="501.253" y="369.344" fill="#E1FDF3"/>
    <rect width="23.983" height="23.983" x="527.635" y="369.344" fill="#F1FCFD"/>
    <rect width="23.983" height="23.983" x="554.017" y="369.344" fill="#E1FDF3"/>
    <rect width="23.983" height="23.983" y="395.726" fill="#E1FDF3"/>
    <rect width="23.983" height="23.983" x="26.382" y="395.726" fill="#E1FDF3"/>
    <rect width="23.983" height="23.983" x="52.763" y="395.726" fill="#F1FCFD"/>
    <rect width="23.983" height="23.983" x="79.145" y="395.726" fill="#E1FDF3"/>
    <rect width="23.983" height="23.983" x="105.527" y="395.726" fill="#F1FCFD"/>
    <rect width="23.983" height="23.983" x="131.909" y="395.726" fill="#E1FDF3"/>
    <rect width="23.983" height="23.983" x="158.29" y="395.726" fill="#F1FCFD"/>
    <rect width="23.983" height="23.983" x="184.672" y="395.726" fill="#E1FDF3"/>
    <rect width="23.983" height="23.983" x="211.054" y="395.726" fill="#F1FCFD"/>
    <rect width="23.983" height="23.983" x="237.436" y="395.726" fill="#E1FDF3"/>
    <rect width="23.983" height="23.983" x="263.817" y="395.726" fill="#F5FFFC"/>
    <rect width="23.983" height="23.983" x="290.199" y="395.726" fill="#F1FCFD"/>
    <rect width="23.983" height="23.983" x="316.581" y="395.726" fill="#F5FFFC"/>
    <rect width="23.983" height="23.983" x="342.963" y="395.726" fill="#E1FDF3"/>
    <rect width="23.983" height="23.983" x="369.344" y="395.726" fill="#F1FCFD"/>
    <rect width="23.983" height="23.983" x="395.726" y="395.726" fill="#F5FFFC"/>
    <rect width="23.983" height="23.983" x="422.108" y="395.726" fill="#F1FCFD"/>
    <rect width="23.983" height="23.983" x="448.49" y="395.726" fill="#E1FDF3"/>
    <rect width="23.983" height="23.983" x="474.871" y="395.726" fill="#F1FCFD"/>
    <rect width="23.983" height="23.983" x="501.253" y="395.726" fill="#F5FFFC"/>
    <rect width="23.983" height="23.983" x="527.635" y="395.726" fill="#E1FDF3"/>
    <rect width="23.983" height="23.983" x="554.017" y="395.726" fill="#E1FDF3"/>
    <rect width="23.983" height="23.983" y="422.108" fill="#E1FDF3"/>
    <rect width="23.983" height="23.983" x="26.382" y="422.108" fill="#F1FCFD"/>
    <rect width="23.983" height="23.983" x="52.763" y="422.108" fill="#E1FDF3"/>
    <rect width="23.983" height="23.983" x="79.145" y="422.108" fill="#E1FDF3"/>
    <rect width="23.983" height="23.983" x="105.527" y="422.108" fill="#F1FCFD"/>
    <rect width="23.983" height="23.983" x="131.909" y="422.108" fill="#F5FFFC"/>
    <rect width="23.983" height="23.983" x="158.29" y="422.108" fill="#F1FCFD"/>
    <rect width="23.983" height="23.983" x="184.672" y="422.108" fill="#E1FDF3"/>
    <rect width="23.983" height="23.983" x="211.054" y="422.108" fill="#E1FDF3"/>
    <rect width="23.983" height="23.983" x="237.436" y="422.108" fill="#F1FCFD"/>
    <rect width="23.983" height="23.983" x="263.817" y="422.108" fill="#E1FDF3"/>
    <rect width="23.983" height="23.983" x="290.199" y="422.108" fill="#E1FDF3"/>
    <rect width="23.983" height="23.983" x="316.581" y="422.108" fill="#E1FDF3"/>
    <rect width="23.983" height="23.983" x="342.963" y="422.108" fill="#F1FCFD"/>
    <rect width="23.983" height="23.983" x="369.344" y="422.108" fill="#E1FDF3"/>
    <rect width="23.983" height="23.983" x="395.726" y="422.108" fill="#E1FDF3"/>
    <rect width="23.983" height="23.983" x="422.108" y="422.108" fill="#E1FDF3"/>
    <rect width="23.983" height="23.983" x="448.49" y="422.108" fill="#F1FCFD"/>
    <rect width="23.983" height="23.983" x="474.871" y="422.108" fill="#E1FDF3"/>
    <rect width="23.983" height="23.983" x="501.253" y="422.108" fill="#E1FDF3"/>
    <rect width="23.983" height="23.983" x="527.635" y="422.108" fill="#E1FDF3"/>
    <rect width="23.983" height="23.983" x="554.017" y="422.108" fill="#F1FCFD"/>
    <rect width="23.983" height="23.983" y="448.49" fill="#DDF6DD"/>
    <rect width="23.983" height="23.983" x="26.382" y="448.49" fill="#DDF6DD"/>
    <rect width="23.983" height="23.983" x="52.763" y="448.49" fill="#EBFFEB"/>
    <rect width="23.983" height="23.983" x="79.145" y="448.49" fill="#DDF6DD"/>
    <rect width="23.983" height="23.983" x="105.527" y="448.49" fill="#DDF6DD"/>
    <rect width="23.983" height="23.983" x="131.909" y="448.49" fill="#DDF6DD"/>
    <rect width="23.983" height="23.983" x="158.29" y="448.49" fill="#DDF6DD"/>
    <rect width="23.983" height="23.983" x="184.672" y="448.49" fill="#EEFFEE"/>
    <rect width="23.983" height="23.983" x="211.054" y="448.49" fill="#EEFFEE"/>
    <rect width="23.983" height="23.983" x="237.436" y="448.49" fill="#DDF6DD"/>
    <rect width="23.983" height="23.983" x="263.817" y="448.49" fill="#DDF6DD"/>
    <rect width="23.983" height="23.983" x="290.199" y="448.49" fill="#EEFFEE"/>
    <rect width="23.983" height="23.983" x="316.581" y="448.49" fill="#EBFFEB"/>
    <rect width="23.983" height="23.983" x="342.963" y="448.49" fill="#DDF6DD"/>
    <rect width="23.983" height="23.983" x="369.344" y="448.49" fill="#DDF6DD"/>
    <rect width="23.983" height="23.983" x="395.726" y="448.49" fill="#EEFFEE"/>
    <rect width="23.983" height="23.983" x="422.108" y="448.49" fill="#DDF6DD"/>
    <rect width="23.983" height="23.983" x="448.49" y="448.49" fill="#DDF6DD"/>
    <rect width="23.983" height="23.983" x="474.871" y="448.49" fill="#EEFFEE"/>
    <rect width="23.983" height="23.983" x="501.253" y="448.49" fill="#DDF6DD"/>
    <rect width="23.983" height="23.983" x="527.635" y="448.49" fill="#EEFFEE"/>
    <rect width="23.983" height="23.983" x="554.017" y="448.49" fill="#EBFFEB"/>
    <rect width="23.983" height="23.983" y="474.871" fill="#DDF6DD"/>
    <rect width="23.983" height="23.983" x="26.382" y="474.871" fill="#EEFFEE"/>
    <rect width="23.983" height="23.983" x="52.763" y="474.871" fill="#DDF6DD"/>
    <rect width="23.983" height="23.983" x="79.145" y="474.871" fill="#EEFFEE"/>
    <rect width="23.983" height="23.983" x="105.527" y="474.871" fill="#DDF6DD"/>
    <rect width="23.983" height="23.983" x="131.909" y="474.871" fill="#EEFFEE"/>
    <rect width="23.983" height="23.983" x="158.29" y="474.871" fill="#EEFFEE"/>
    <rect width="23.983" height="23.983" x="184.672" y="474.871" fill="#EBFFEB"/>
    <rect width="23.983" height="23.983" x="211.054" y="474.871" fill="#DDF6DD"/>
    <rect width="23.983" height="23.983" x="237.436" y="474.871" fill="#EEFFEE"/>
    <rect width="23.983" height="23.983" x="263.817" y="474.871" fill="#DDF6DD"/>
    <rect width="23.983" height="23.983" x="290.199" y="474.871" fill="#DDF6DD"/>
    <rect width="23.983" height="23.983" x="316.581" y="474.871" fill="#EEFFEE"/>
    <rect width="23.983" height="23.983" x="342.963" y="474.871" fill="#DDF6DD"/>
    <rect width="23.983" height="23.983" x="369.344" y="474.871" fill="#EBFFEB"/>
    <rect width="23.983" height="23.983" x="395.726" y="474.871" fill="#DDF6DD"/>
    <rect width="23.983" height="23.983" x="422.108" y="474.871" fill="#EEFFEE"/>
    <rect width="23.983" height="23.983" x="448.49" y="474.871" fill="#EEFFEE"/>
    <rect width="23.983" height="23.983" x="474.871" y="474.871" fill="#DDF6DD"/>
    <rect width="23.983" height="23.983" x="501.253" y="474.871" fill="#EEFFEE"/>
    <rect width="23.983" height="23.983" x="527.635" y="474.871" fill="#DDF6DD"/>
    <rect width="23.983" height="23.983" x="554.017" y="474.871" fill="#EEFFEE"/>
    <rect width="23.983" height="23.983" y="501.253" fill="#FCEFEE"/>
    <rect width="23.983" height="23.983" x="26.382" y="501.253" fill="#FFF6F5"/>
    <rect width="23.983" height="23.983" x="52.763" y="501.253" fill="#FFF6F5"/>
    <rect width="23.983" height="23.983" x="79.145" y="501.253" fill="#FCEFEE"/>
    <rect width="23.983" height="23.983" x="105.527" y="501.253" fill="#FFF6F5"/>
    <rect width="23.983" height="23.983" x="131.909" y="501.253" fill="#FCEFEE"/>
    <rect width="23.983" height="23.983" x="158.29" y="501.253" fill="#FCEFEE"/>
    <rect width="23.983" height="23.983" x="184.672" y="501.253" fill="#FCEFEE"/>
    <rect width="23.983" height="23.983" x="211.054" y="501.253" fill="#FFF6F5"/>
    <rect width="23.983" height="23.983" x="237.436" y="501.253" fill="#FCEFEE"/>
    <rect width="23.983" height="23.983" x="263.817" y="501.253" fill="#FCEFEE"/>
    <rect width="23.983" height="23.983" x="290.199" y="501.253" fill="#FFF6F5"/>
    <rect width="23.983" height="23.983" x="316.581" y="501.253" fill="#FCEFEE"/>
    <rect width="23.983" height="23.983" x="342.963" y="501.253" fill="#FCEFEE"/>
    <rect width="23.983" height="23.983" x="369.344" y="501.253" fill="#FFF6F5"/>
    <rect width="23.983" height="23.983" x="395.726" y="501.253" fill="#FCEFEE"/>
    <rect width="23.983" height="23.983" x="422.108" y="501.253" fill="#FCEFEE"/>
    <rect width="23.983" height="23.983" x="448.49" y="501.253" fill="#FFF6F5"/>
    <rect width="23.983" height="23.983" x="474.871" y="501.253" fill="#FCEFEE"/>
    <rect width="23.983" height="23.983" x="501.253" y="501.253" fill="#FCEFEE"/>
    <rect width="23.983" height="23.983" x="527.635" y="501.253" fill="#FFF6F5"/>
    <rect width="23.983" height="23.983" x="554.017" y="501.253" fill="#FCEFEE"/>
    <rect width="23.983" height="23.983" y="527.635" fill="#FEF6F5"/>
    <rect width="23.983" height="23.983" x="26.382" y="527.635" fill="#FFFBFA"/>
    <rect width="23.983" height="23.983" x="52.763" y="527.635" fill="#FEF6F5"/>
    <rect width="23.983" height="23.983" x="79.145" y="527.635" fill="#FFFBFA"/>
    <rect width="23.983" height="23.983" x="105.527" y="527.635" fill="#FEF6F5"/>
    <rect width="23.983" height="23.983" x="131.909" y="527.635" fill="#FFFBFA"/>
    <rect width="23.983" height="23.983" x="158.29" y="527.635" fill="#FEF6F5"/>
    <rect width="23.983" height="23.983" x="184.672" y="527.635" fill="#FFFBFA"/>
    <rect width="23.983" height="23.983" x="211.054" y="527.635" fill="#FEF6F5"/>
    <rect width="23.983" height="23.983" x="237.436" y="527.635" fill="#FFFBFA"/>
    <rect width="23.983" height="23.983" x="263.817" y="527.635" fill="#FEF6F5"/>
    <rect width="23.983" height="23.983" x="290.199" y="527.635" fill="#FEF6F5"/>
    <rect width="23.983" height="23.983" x="316.581" y="527.635" fill="#FFFBFA"/>
    <rect width="23.983" height="23.983" x="342.963" y="527.635" fill="#FEF6F5"/>
    <rect width="23.983" height="23.983" x="369.344" y="527.635" fill="#FEF6F5"/>
    <rect width="23.983" height="23.983" x="395.726" y="527.635" fill="#FFFBFA"/>
    <rect width="23.983" height="23.983" x="422.108" y="527.635" fill="#FEF6F5"/>
    <rect width="23.983" height="23.983" x="448.49" y="527.635" fill="#FFFBFA"/>
    <rect width="23.983" height="23.983" x="474.871" y="527.635" fill="#FEF6F5"/>
    <rect width="23.983" height="23.983" x="501.253" y="527.635" fill="#FFFBFA"/>
    <rect width="23.983" height="23.983" x="527.635" y="527.635" fill="#FEF6F5"/>
    <rect width="23.983" height="23.983" x="554.017" y="527.635" fill="#FEF6F5"/>
    <rect width="23.983" height="23.983" y="554.017" fill="#FFFDFD"/>
    <rect width="23.983" height="23.983" x="26.382" y="554.017" fill="#FFFDFD"/>
    <rect width="23.983" height="23.983" x="52.763" y="554.017" fill="#FEF6F5"/>
    <rect width="23.983" height="23.983" x="79.145" y="554.017" fill="#FFFDFD"/>
    <rect width="23.983" height="23.983" x="105.527" y="554.017" fill="#FEF6F5"/>
    <rect width="23.983" height="23.983" x="131.909" y="554.017" fill="#FEF6F5"/>
    <rect width="23.983" height="23.983" x="158.29" y="554.017" fill="#FFFDFD"/>
    <rect width="23.983" height="23.983" x="184.672" y="554.017" fill="#FEF6F5"/>
    <rect width="23.983" height="23.983" x="211.054" y="554.017" fill="#FFFDFD"/>
    <rect width="23.983" height="23.983" x="237.436" y="554.017" fill="#FEF6F5"/>
    <rect width="23.983" height="23.983" x="263.817" y="554.017" fill="#FEF6F5"/>
    <rect width="23.983" height="23.983" x="290.199" y="554.017" fill="#FEF6F5"/>
    <rect width="23.983" height="23.983" x="316.581" y="554.017" fill="#FFFDFD"/>
    <rect width="23.983" height="23.983" x="342.963" y="554.017" fill="#FEF6F5"/>
    <rect width="23.983" height="23.983" x="369.344" y="554.017" fill="#FEF6F5"/>
    <rect width="23.983" height="23.983" x="395.726" y="554.017" fill="#FFFDFD"/>
    <rect width="23.983" height="23.983" x="422.108" y="554.017" fill="#FEF6F5"/>
    <rect width="23.983" height="23.983" x="448.49" y="554.017" fill="#FEF6F5"/>
    <rect width="23.983" height="23.983" x="474.871" y="554.017" fill="#FFFDFD"/>
    <rect width="23.983" height="23.983" x="501.253" y="554.017" fill="#FEF6F5"/>
    <rect width="23.983" height="23.983" x="527.635" y="554.017" fill="#FFFDFD"/>
    <rect width="23.983" height="23.983" x="554.017" y="554.017" fill="#FEF6F5"/>
    <g transform="translate(5 5)">
      <path fill="#1F5279" d="M208.11723,252.96 C206.29322,250.655988 203.821244,248.952006 200.70123,247.848 C197.581214,246.743994 194.629243,246.192 191.84523,246.192 C190.213222,246.192 188.533238,246.383998 186.80523,246.768 C185.077221,247.152002 183.445238,247.751996 181.90923,248.568 C180.373222,249.384004 179.125234,250.463994 178.16523,251.808 C177.205225,253.152006 176.72523,254.78399 176.72523,256.704 C176.72523,259.776016 177.877218,262.127992 180.18123,263.76 C182.485241,265.392008 185.389212,266.783994 188.89323,267.936 C192.397247,269.088006 196.16521,270.239994 200.19723,271.392 C204.22925,272.544006 207.997212,274.17599 211.50123,276.288 C215.005248,278.40001 217.909218,281.231982 220.21323,284.784 C222.51724,288.336018 223.66923,293.08797 223.66923,299.04 C223.66923,304.704028 222.61324,309.64798 220.50123,313.872 C218.38922,318.09602 215.533248,321.599986 211.93323,324.384 C208.333212,327.168014 204.157254,329.231994 199.40523,330.576 C194.653206,331.920006 189.637256,332.592 184.35723,332.592 C177.733197,332.592 171.589258,331.58401 165.92523,329.568 C160.261202,327.55199 154.981254,324.288022 150.08523,319.776 L166.06923,302.208 C168.373241,305.280016 171.277212,307.655992 174.78123,309.336 C178.285247,311.016008 181.909211,311.856 185.65323,311.856 C187.477238,311.856 189.32522,311.640002 191.19723,311.208 C193.069239,310.775998 194.749222,310.128004 196.23723,309.264 C197.725237,308.399996 198.925225,307.296006 199.83723,305.952 C200.749234,304.607994 201.20523,303.024008 201.20523,301.2 C201.20523,298.127984 200.029242,295.704008 197.67723,293.928 C195.325218,292.151992 192.373247,290.640006 188.82123,289.392 C185.269212,288.143994 181.42925,286.896006 177.30123,285.648 C173.173209,284.399994 169.333247,282.72001 165.78123,280.608 C162.229212,278.49599 159.277242,275.712018 156.92523,272.256 C154.573218,268.799982 153.39723,264.240028 153.39723,258.576 C153.39723,253.103972 154.477218,248.30402 156.63723,244.176 C158.79724,240.04798 161.677211,236.592014 165.27723,233.808 C168.877247,231.023986 173.029206,228.936008 177.73323,227.544 C182.437253,226.151992 187.285205,225.456 192.27723,225.456 C198.037258,225.456 203.605202,226.271992 208.98123,227.904 C214.357256,229.536008 219.205208,232.27198 223.52523,236.112 L208.11723,252.96 L208.11723,252.96 L208.11723,252.96 Z M240.37323,228.048 L262.83723,228.048 L262.83723,266.064 L306.46923,266.064 L306.46923,228.048 L328.93323,228.048 L328.93323,330 L306.46923,330 L306.46923,285.936 L262.83723,285.936 L262.83723,330 L240.37323,330 L240.37323,228.048 L240.37323,228.048 L240.37323,228.048 Z M349.66923,228.048 L389.12523,228.048 C394.309256,228.048 399.229206,228.551996 403.88523,229.56 C408.541252,230.568004 412.621212,232.247988 416.12523,234.6 C419.629248,236.952012 422.41322,240.11998 424.47723,244.104 C426.54124,248.08802 427.57323,253.05597 427.57323,259.008 C427.57323,266.208036 425.701248,272.327974 421.95723,277.368 C418.213212,282.408024 412.741266,285.599994 405.54123,286.944 L431.46123,330 L404.53323,330 L383.22123,289.248 L372.13323,289.248 L372.13323,330 L349.66923,330 L349.66923,228.048 L349.66923,228.048 L349.66923,228.048 Z M372.13323,270.24 L385.38123,270.24 C387.39724,270.24 389.533218,270.168 391.78923,270.024 C394.04524,269.88 396.08522,269.448004 397.90923,268.728 C399.733238,268.007996 401.245224,266.880008 402.44523,265.344 C403.645236,263.807992 404.24523,261.648014 404.24523,258.864 C404.24523,256.271988 403.717236,254.208008 402.66123,252.672 C401.605224,251.135992 400.261238,249.960004 398.62923,249.144 C396.997222,248.327996 395.12524,247.776002 393.01323,247.488 C390.90122,247.199998 388.83724,247.056 386.82123,247.056 L372.13323,247.056 L372.13323,270.24 L372.13323,270.24 L372.13323,270.24 Z" opacity=".9"/>
      <path stroke="#7FC1DD" stroke-width="36.9" d="M302.337095,486.17248 C408.470341,478.53319 492.201153,390.009146 492.201153,281.928724 C492.201153,168.832628 400.518653,77.1501293 287.422559,77.1501293 C174.326464,77.1501293 82.6439651,168.832628 82.6439651,281.928724 C82.6439651,303.587436 86.0129475,323.712286 91.8156129,342.168888" transform="rotate(150 287.423 281.661)"/>
      <path stroke="#295677" stroke-width="36.9" d="M345.428768,484.421059 C428.132696,458.102677 488.04433,380.671841 488.04433,289.247893 C488.04433,176.1518 396.36183,84.4693009 283.265736,84.4693009 C170.169643,84.4693009 78.4871436,176.1518 78.4871436,289.247893 C78.4871436,325.973193 88.1735818,358.288355 102.986628,385.538217 C133.790575,442.204705 186.763929,476.966899 220.901892,483.933139" transform="rotate(-125 283.266 284.445)"/>
      <path fill="#F7F7FF" stroke="#295677" stroke-width="22.5" d="M408.348946,167.315174 C437.247208,167.315174 460.673876,143.888505 460.673876,114.990244 C460.673876,86.0919828 437.247208,62.6653134 408.348946,62.6653134 C379.450684,62.6653134 356.024016,86.0919828 356.024016,114.990244 C356.024016,143.888505 379.450684,167.315174 408.348946,167.315174 L408.348946,167.315174 L408.348946,167.315174 Z"/>
      <path fill="#2A5677" d="M408.758848,136.685163 C420.733174,136.685163 430.44028,126.978056 430.44028,115.003731 C430.44028,103.029407 420.733174,93.3222996 408.758848,93.3222996 C396.784524,93.3222996 387.077418,103.029407 387.077418,115.003731 C387.077418,126.978056 396.784524,136.685163 408.758848,136.685163 L408.758848,136.685163 L408.758848,136.685163 Z"/>
    </g>
  </g>
</svg>
